<svg xmlns="http://www.w3.org/2000/svg" xmlns:xlink="http://www.w3.org/1999/xlink" width="521.878" height="312.553" viewBox="0 0 521.878 312.553">
  <defs>
    <linearGradient id="linear-gradient" x1="1" y1="0.5" x2="0" y2="0.5" gradientUnits="objectBoundingBox">
      <stop offset="0" stop-color="#fff" stop-opacity="0"/>
      <stop offset="0.544" stop-color="#fff"/>
      <stop offset="0.988" stop-color="#fff" stop-opacity="0"/>
    </linearGradient>
  </defs>
  <g id="Group_73" data-name="Group 73" transform="translate(0)">
    <g id="Group_11" data-name="Group 11" transform="translate(0)">
      <path id="Path_6" data-name="Path 6" d="M263.582,424.835H781.225c7.291-9.111-.7-25.592-10.131-32.464s-21.322-10.491-29.105-19.184c-12.194-13.622-10.186-34.265-9.049-52.512s-1.375-40.148-17.532-48.7c-14.9-7.89-33.68.038-49.846-4.752-15.973-4.734-25.61-20.382-35.392-33.866a224.907,224.907,0,0,0-137.453-87.7C469.2,141.062,444.1,140.454,422,149.7s-40.471,29.953-41.754,53.879c-.907,16.923,6.421,33.053,10.129,49.589s2.575,36.539-10.895,46.822c-10.906,8.327-25.934,7.4-39.543,9.145s-29.236,9.631-29.63,23.347c-.426,14.879,17.817,26.847,14.079,41.255-2.284,8.807-11.976,13.5-20.935,15.079s-18.481,1.316-26.629,5.366S258.4,417.354,263.582,424.835Z" transform="translate(-262.183 -142.406)" fill="#004e9f" opacity="0.2"/>
      <g id="Group_10" data-name="Group 10" transform="translate(42.154 12.944)">
        <path id="Path_7" data-name="Path 7" d="M318.695,209.9H429.642c1.094-2.791-1.275-5.88-4.036-7.048s-5.889-.867-8.877-.614-6.161.4-8.8-1.01c-5.112-2.732-5.8-9.583-8.128-14.892a21.68,21.68,0,0,0-40.387,1.723c-1.439,4.238-1.732,9.2-4.993,12.268-3.431,3.222-8.841,3.014-13.38,1.769s-8.974-3.334-13.677-3.206S318.376,205.205,318.695,209.9Z" transform="translate(-24.312 -145.695)" fill="#c7d2d7"/>
        <path id="Path_8" data-name="Path 8" d="M454.783,170.476H556.212a21.646,21.646,0,0,0-12.222-11.79,20.978,20.978,0,0,0-16.647,1.391c-3.092,1.685-5.88,4.2-9.362,4.724-5.484.82-10.2-3.481-14.839-6.518a37.331,37.331,0,0,0-27.03-5.394C466.857,154.629,460.251,162.811,454.783,170.476Z" transform="translate(-329.177 -152.272)" fill="#c7d2d7"/>
        <path id="Path_9" data-name="Path 9" d="M555.646,206.285h94.7a13.013,13.013,0,0,0-4.8-8.432,11.14,11.14,0,0,0-8.755-1.841c-2.342.505-4.5,1.77-6.886,2-3.747.365-7.265-1.887-9.946-4.529s-4.9-5.785-7.956-7.989a16.938,16.938,0,0,0-25.143,6.313c-.926,1.9-1.49,3.962-2.453,5.844a7.964,7.964,0,0,1-4.469,4.251c-3.377,1.008-6.7-1.443-10.092-2.4C564.671,198.043,558.282,201.592,555.646,206.285Z" transform="translate(-555.646 -142.902)" fill="#c7d2d7"/>
      </g>
    </g>
    <g id="Group_72" data-name="Group 72" transform="translate(36.457 40.187)">
      <g id="Group_70" data-name="Group 70">
        <ellipse id="Ellipse_2" data-name="Ellipse 2" cx="157.101" cy="5.281" rx="157.101" ry="5.281" transform="translate(68.077 261.804)" fill="#495375"/>
        <g id="Group_69" data-name="Group 69">
          <g id="Group_67" data-name="Group 67" transform="translate(65.389)">
            <g id="Group_15" data-name="Group 15" transform="translate(141.802 53.363)">
              <g id="Group_12" data-name="Group 12" transform="translate(13.704)">
                <path id="Path_10" data-name="Path 10" d="M400.072,248.546h9.967a3.359,3.359,0,0,1,3.36,3.36v6.228a3.36,3.36,0,0,1-3.36,3.36h-8.069v-2.478h0a9.17,9.17,0,0,1-6.484-2.686l-1.211-1.211Z" transform="translate(-322.178 -202.842)" fill="#eba58e"/>
                <path id="Path_11" data-name="Path 11" d="M435.122,250.548l-5.8,6.573-24.892-5.787,3.443-9.209Z" transform="translate(-357.229 -204.844)" fill="#eba58e"/>
                <path id="Path_12" data-name="Path 12" d="M427.418,242.126l1.215.376.393,10.008-5.052-1.174Z" transform="translate(-376.769 -204.844)" fill="#dd8c76"/>
                <path id="Path_13" data-name="Path 13" d="M433.1,215.376h0a7.809,7.809,0,0,1,10.736,1.044l25.82,29.95,4.667,1.573-4.336,11.6-2.448-.53a19.781,19.781,0,0,1-10.14-5.7L432.26,226.9A7.809,7.809,0,0,1,433.1,215.376Z" transform="translate(-430.107 -213.71)" fill="#eba25d"/>
                <path id="Path_14" data-name="Path 14" d="M424.732,252.236l.138-.369,4.336-11.6.429-1.147a1.27,1.27,0,0,1,1.635-.745l4.268,1.6a1.271,1.271,0,0,1,.745,1.635l-.348.93-4.055,10.845-.5,1.337a1.27,1.27,0,0,1-1.635.745l-4.268-1.6A1.27,1.27,0,0,1,424.732,252.236Z" transform="translate(-384.995 -206.038)" fill="#f0bf6c"/>
                <path id="Path_15" data-name="Path 15" d="M439.763,217.668a7.867,7.867,0,0,0-9.656-1.808c.177-.168.358-.332.554-.484h0a7.809,7.809,0,0,1,10.736,1.044l25.82,29.95,4.667,1.573-.7,1.86-5.241-1.766Z" transform="translate(-427.672 -213.71)" fill="#f0bf6c"/>
              </g>
              <g id="Group_14" data-name="Group 14" transform="translate(0 63.987)">
                <path id="Path_16" data-name="Path 16" d="M431.135,262.481,484.953,276.8a14.474,14.474,0,0,1,8.689,21.433l-31.37,52.306-17.468-7.751,25.1-47.731L418.79,284.374a16.755,16.755,0,0,1-12.4-21.893h24.747Z" transform="translate(-405.456 -262.481)" fill="#422c4f"/>
                <g id="Group_13" data-name="Group 13" transform="translate(33.01 81.895)">
                  <path id="Path_17" data-name="Path 17" d="M436.134,326.886l1.311-1.984,9.926,4.4-2.337,4.253-11.064-3.1C434.648,329.241,435.366,328.048,436.134,326.886Z" transform="translate(-427.533 -324.901)" fill="#eba58e"/>
                  <path id="Path_18" data-name="Path 18" d="M443.526,334.133l.925,2.354-1.233-.869a2.9,2.9,0,0,0-1.671-.529h-5.8a56.177,56.177,0,0,1,2.883-5.955l11.064,3.1-.668,1.216h-5.042A.5.5,0,0,0,443.526,334.133Z" transform="translate(-432.197 -323.581)" fill="#fff"/>
                  <path id="Path_19" data-name="Path 19" d="M445.786,343.239H422.338l.426-1.656a56.391,56.391,0,0,1,2.527-7.522h5.8a2.9,2.9,0,0,1,1.671.529l1.233.869-.925-2.354a.5.5,0,0,1,.462-.678h5.042l3.725,3.5a9.1,9.1,0,0,0,6.232,2.469h2.537a6.569,6.569,0,0,1,5.771,3.434l-4.835.861A35.51,35.51,0,0,1,445.786,343.239Z" transform="translate(-421.737 -322.554)" fill="#422c4f"/>
                  <path id="Path_20" data-name="Path 20" d="M445.777,341a35.5,35.5,0,0,0,6.215-.548l4.835-.861a6.532,6.532,0,0,1,.8,2.911l-7.388.669q-1.751.157-3.513.159h-25l.6-2.33Z" transform="translate(-421.728 -320.318)" fill="#fff"/>
                  <path id="Path_21" data-name="Path 21" d="M435.925,324.9l9.925,4.4-1.072,1.952-10.807-3.372Z" transform="translate(-426.013 -324.902)" fill="#422c4f"/>
                </g>
              </g>
            </g>
            <g id="Group_43" data-name="Group 43" transform="translate(23.754 95.435)">
              <g id="Group_16" data-name="Group 16" transform="translate(226.759 17.097)">
                <path id="Path_22" data-name="Path 22" d="M382.371,258.809h2.54l6.539,23.132a73.029,73.029,0,0,1-5.753,54.07l-3.188,1.2Z" transform="translate(-382.371 -258.809)" fill="#4987e5"/>
                <path id="Path_23" data-name="Path 23" d="M375.9,281.941l-6.539-23.132h2.383l13.42,49.818a10.275,10.275,0,0,0,9.923,7.6.636.636,0,0,1,.635.636v9.508l-25.575,9.638A73.03,73.03,0,0,0,375.9,281.941Z" transform="translate(-366.822 -258.809)" fill="#65b2ff"/>
              </g>
              <g id="Group_17" data-name="Group 17" transform="translate(221.677 98.959)">
                <circle id="Ellipse_3" data-name="Ellipse 3" cx="35.729" cy="35.729" r="35.729" fill="#422c4f"/>
                <circle id="Ellipse_4" data-name="Ellipse 4" cx="25.725" cy="25.725" r="25.725" transform="translate(10.004 10.004)" fill="#495375"/>
                <circle id="Ellipse_5" data-name="Ellipse 5" cx="21.005" cy="21.005" r="21.005" transform="translate(14.724 14.724)" fill="#c7d2d7"/>
                <path id="Path_24" data-name="Path 24" d="M380.773,332.427a20.909,20.909,0,0,1,10.841,3.011,18.562,18.562,0,1,0,0,35.988,21.006,21.006,0,1,1-10.841-39Z" transform="translate(-345.045 -317.703)" fill="#99a3b0"/>
                <circle id="Ellipse_6" data-name="Ellipse 6" cx="9.263" cy="9.263" r="9.263" transform="translate(26.466 26.466)" fill="#99a3b0"/>
                <path id="Path_25" data-name="Path 25" d="M363.247,349.929a6.276,6.276,0,1,0,6.275-6.275A6.275,6.275,0,0,0,363.247,349.929Z" transform="translate(-333.794 -314.201)" fill="#a34262"/>
              </g>
              <g id="Group_18" data-name="Group 18" transform="translate(38.154 98.959)">
                <circle id="Ellipse_7" data-name="Ellipse 7" cx="35.729" cy="35.729" r="35.729" fill="#422c4f"/>
                <circle id="Ellipse_8" data-name="Ellipse 8" cx="25.725" cy="25.725" r="25.725" transform="translate(10.004 10.004)" fill="#495375"/>
                <circle id="Ellipse_9" data-name="Ellipse 9" cx="21.005" cy="21.005" r="21.005" transform="translate(14.724 14.724)" fill="#c7d2d7"/>
                <path id="Path_26" data-name="Path 26" d="M520.655,332.427a20.916,20.916,0,0,1,10.841,3.011,18.562,18.562,0,1,0,0,35.988,21.006,21.006,0,1,1-10.841-39Z" transform="translate(-484.926 -317.703)" fill="#99a3b0"/>
                <circle id="Ellipse_10" data-name="Ellipse 10" cx="9.263" cy="9.263" r="9.263" transform="translate(26.466 26.466)" fill="#99a3b0"/>
                <path id="Path_27" data-name="Path 27" d="M503.129,349.929a6.276,6.276,0,1,0,6.275-6.275A6.275,6.275,0,0,0,503.129,349.929Z" transform="translate(-473.676 -314.201)" fill="#a34262"/>
              </g>
              <g id="Group_20" data-name="Group 20" transform="translate(213.26 84.638)">
                <g id="Group_19" data-name="Group 19" transform="translate(1.727)">
                  <path id="Path_28" data-name="Path 28" d="M392.03,313.019c-18.4.579-34.142,13.458-39.038,31.207l-.8,2.884-.863.424,1.66-6.014c4.9-17.749,20.635-30.628,39.038-31.208q.712-.022,1.429-.022a44.236,44.236,0,0,1,22.2,5.925l-1.216,2.031A44.251,44.251,0,0,0,393.459,313C392.981,313,392.5,313,392.03,313.019Z" transform="translate(-351.332 -310.289)" fill="#fff"/>
                  <path id="Path_29" data-name="Path 29" d="M388.734,328.542l-36.475,17.924.8-2.884c4.9-17.749,20.635-30.628,39.038-31.207.475-.016.951-.022,1.429-.022a44.25,44.25,0,0,1,20.985,5.248l-6.551,10.941Z" transform="translate(-351.396 -309.645)" fill="#d1ffff"/>
                </g>
                <path id="Path_30" data-name="Path 30" d="M342.13,349.033h17.048a28.9,28.9,0,0,0,20.433-8.464h0a28.9,28.9,0,0,1,20.433-8.464h20.214l-6.4-6.4a39.419,39.419,0,0,0-27.877-11.548h0a39.424,39.424,0,0,0-33.244,18.231Z" transform="translate(-342.13 -309.081)" fill="#65b2ff"/>
              </g>
              <path id="Path_31" data-name="Path 31" d="M594.233,258.809l6.539,23.132a73.034,73.034,0,0,1-6.4,55.27l-3.264,5.891a52.447,52.447,0,0,1-45.872,27.023H384.307L390.07,349.2a84.893,84.893,0,0,1,37.17-49.643l10.421-6.448h89.526v3.911a6.05,6.05,0,0,1-4.118,5.733h0a26.265,26.265,0,0,0-17.683,21.7h0a26.264,26.264,0,0,0,26.069,29.454h13.091A36.664,36.664,0,0,0,575.5,336.9l6.069-9.558a47.658,47.658,0,0,0,6.376-35.495l-7.051-33.035Z" transform="translate(-367.474 -241.712)" fill="#65b2ff"/>
              <path id="Path_32" data-name="Path 32" d="M436.979,287.684h96.759V276.2H456.58a19.912,19.912,0,0,0-14.252,6Z" transform="translate(-366.792 -236.287)" fill="#422c4f"/>
              <g id="Group_21" data-name="Group 21" transform="translate(124.854 19.032)">
                <path id="Path_33" data-name="Path 33" d="M390.664,371.252h43.443a54.053,54.053,0,0,0,47.26-27.842l3.264-5.889a74.162,74.162,0,0,0,6.54-56.472,24.22,24.22,0,0,1,2.211-18.394,1.588,1.588,0,0,0-2.764-1.564,27.425,27.425,0,0,0-2.5,20.821,71,71,0,0,1-6.261,54.068l-3.264,5.891a50.88,50.88,0,0,1-44.483,26.206H390.664a1.588,1.588,0,1,0,0,3.175Z" transform="translate(-389.075 -260.285)" fill="#fff"/>
              </g>
              <path id="Path_34" data-name="Path 34" d="M568.589,338.914H469.051l1.523,1.523a12.98,12.98,0,0,0,9.18,3.8H558.1a12.982,12.982,0,0,0,10.484-5.325Z" transform="translate(-443.72 -216.721)" fill="#4987e5"/>
              <g id="Group_31" data-name="Group 31" transform="translate(56.416 92.04)">
                <ellipse id="Ellipse_11" data-name="Ellipse 11" cx="21.531" cy="21.531" rx="21.531" ry="21.531" transform="translate(7.572 49.962) rotate(-100.127)" fill="#99a3b0"/>
                <g id="Group_22" data-name="Group 22" transform="translate(8.422 8.423)">
                  <path id="Path_35" data-name="Path 35" d="M506.123,355.468a16.559,16.559,0,1,0-16.559-16.559A16.577,16.577,0,0,0,506.123,355.468Zm0-31.357a14.8,14.8,0,1,1-14.8,14.8A14.815,14.815,0,0,1,506.123,324.112Z" transform="translate(-489.564 -322.351)" fill="#495375"/>
                </g>
                <g id="Group_30" data-name="Group 30" transform="translate(13.348 13.53)">
                  <g id="Group_23" data-name="Group 23" transform="translate(0 10.571)">
                    <path id="Path_36" data-name="Path 36" d="M494.2,336.062H515.7a.88.88,0,1,0,0-1.761H494.2a.88.88,0,0,0,0,1.761Z" transform="translate(-493.317 -334.301)" fill="#495375"/>
                  </g>
                  <g id="Group_24" data-name="Group 24" transform="translate(1.851 7.047)">
                    <path id="Path_37" data-name="Path 37" d="M495.609,333.377h17.8a.881.881,0,0,0,0-1.762h-17.8a.881.881,0,0,0,0,1.762Z" transform="translate(-494.729 -331.615)" fill="#495375"/>
                  </g>
                  <g id="Group_25" data-name="Group 25" transform="translate(4.337 3.524)">
                    <path id="Path_38" data-name="Path 38" d="M497.506,330.691h12.83a.88.88,0,1,0,0-1.761h-12.83a.88.88,0,1,0,0,1.761Z" transform="translate(-496.624 -328.93)" fill="#495375"/>
                  </g>
                  <g id="Group_26" data-name="Group 26" transform="translate(7.296)">
                    <path id="Path_39" data-name="Path 39" d="M499.759,328.006h6.914a.881.881,0,0,0,0-1.762h-6.914a.881.881,0,0,0,0,1.762Z" transform="translate(-498.879 -326.244)" fill="#495375"/>
                  </g>
                  <g id="Group_27" data-name="Group 27" transform="translate(1.851 14.093)">
                    <path id="Path_40" data-name="Path 40" d="M495.609,338.748h17.8a.881.881,0,0,0,0-1.762h-17.8a.881.881,0,0,0,0,1.762Z" transform="translate(-494.729 -336.986)" fill="#495375"/>
                  </g>
                  <g id="Group_28" data-name="Group 28" transform="translate(4.337 17.616)">
                    <path id="Path_41" data-name="Path 41" d="M497.506,341.433h12.83a.881.881,0,0,0,0-1.762h-12.83a.881.881,0,1,0,0,1.762Z" transform="translate(-496.624 -339.671)" fill="#495375"/>
                  </g>
                  <g id="Group_29" data-name="Group 29" transform="translate(7.296 21.14)">
                    <path id="Path_42" data-name="Path 42" d="M499.759,344.119h6.914a.881.881,0,0,0,0-1.762h-6.914a.881.881,0,0,0,0,1.762Z" transform="translate(-498.879 -342.357)" fill="#495375"/>
                  </g>
                </g>
              </g>
              <g id="Group_32" data-name="Group 32" transform="translate(25.33 60.871)">
                <path id="Path_43" data-name="Path 43" d="M495.008,301.692h0A65.446,65.446,0,0,1,529,292.174h4.019c20.418,0,37.733,16.7,37.718,37.121a36.942,36.942,0,0,1-9.017,24.2H462.178l3.813-13.576A65.444,65.444,0,0,1,495.008,301.692Z" transform="translate(-462.178 -292.174)" fill="#88c9ff"/>
                <path id="Path_44" data-name="Path 44" d="M497.295,311.658h0a47.925,47.925,0,0,1,24.89-6.971h2.943c14.953,0,27.63,12.23,27.62,27.183a27.043,27.043,0,0,1-6.6,17.722h-72.89l2.793-9.942A47.929,47.929,0,0,1,497.295,311.658Z" transform="translate(-458.723 -288.27)" fill="#65b2ff"/>
              </g>
              <g id="Group_38" data-name="Group 38" transform="translate(62.494 99.716)">
                <g id="Group_33" data-name="Group 33" transform="translate(0 15.088)">
                  <path id="Path_45" data-name="Path 45" d="M490.553,335.188H524.06a.953.953,0,1,0,0-1.906H490.553a.953.953,0,0,0,0,1.906Z" transform="translate(-489.601 -333.282)" fill="#495375"/>
                </g>
                <g id="Group_34" data-name="Group 34" transform="translate(1.032 11.316)">
                  <path id="Path_46" data-name="Path 46" d="M489.768,332.313h33.507a.953.953,0,0,0,0-1.906H489.768a.953.953,0,0,0,0,1.906Z" transform="translate(-488.815 -330.407)" fill="#495375"/>
                </g>
                <g id="Group_35" data-name="Group 35" transform="translate(2.064 7.544)">
                  <path id="Path_47" data-name="Path 47" d="M488.98,329.438h33.508a.953.953,0,0,0,0-1.906H488.98a.953.953,0,0,0,0,1.906Z" transform="translate(-488.028 -327.532)" fill="#495375"/>
                </g>
                <g id="Group_36" data-name="Group 36" transform="translate(3.096 3.772)">
                  <path id="Path_48" data-name="Path 48" d="M488.193,326.563H521.7a.953.953,0,0,0,0-1.906H488.193a.953.953,0,0,0,0,1.906Z" transform="translate(-487.241 -324.657)" fill="#495375"/>
                </g>
                <g id="Group_37" data-name="Group 37" transform="translate(4.129)">
                  <path id="Path_49" data-name="Path 49" d="M487.406,323.688h33.507a.953.953,0,1,0,0-1.906H487.406a.953.953,0,0,0,0,1.906Z" transform="translate(-486.454 -321.782)" fill="#495375"/>
                </g>
              </g>
              <path id="Path_50" data-name="Path 50" d="M532.018,284.953H442.492a10.571,10.571,0,0,0,7.472,3.095h73.768a12.641,12.641,0,0,0,8.286-3.095Z" transform="translate(-372.305 -233.556)" fill="#4987e5"/>
              <path id="Path_51" data-name="Path 51" d="M382.639,262.874h26.678v-17.1h-5.792a34.026,34.026,0,0,0-14.386,3.192l-4.286,2a6.292,6.292,0,0,0-3.423,7.295Z" transform="translate(-169.219 -245.778)" fill="#65b2ff"/>
              <g id="Group_39" data-name="Group 39" transform="translate(240.098 0)">
                <rect id="Rectangle_5" data-name="Rectangle 5" width="2.805" height="17.097" transform="translate(0)" fill="#d1ffff"/>
                <rect id="Rectangle_6" data-name="Rectangle 6" width="1.429" height="17.097" transform="translate(2.805)" fill="#fff"/>
              </g>
              <g id="Group_42" data-name="Group 42" transform="translate(0 46.686)">
                <g id="Group_40" data-name="Group 40" transform="translate(27.737 0.635)">
                  <path id="Path_52" data-name="Path 52" d="M536.043,283.472a.953.953,0,1,1,1.348-1.347l7.978,7.98h-2.7Z" transform="translate(-535.764 -281.846)" fill="#c7d2d7"/>
                  <path id="Path_53" data-name="Path 53" d="M528.4,288.14l12.924,12.924a.953.953,0,0,1-1.347,1.347L525.7,288.14Z" transform="translate(-518.79 -279.882)" fill="#fff"/>
                </g>
                <g id="Group_41" data-name="Group 41">
                  <path id="Path_54" data-name="Path 54" d="M540.247,293.88h53.7a1.588,1.588,0,0,0,0-3.176h-53.7a14.261,14.261,0,0,1-10.154-4.206,17.422,17.422,0,0,0-12.4-5.135H465.468a1.588,1.588,0,1,0,0,3.175h52.226a14.27,14.27,0,0,1,10.155,4.206A17.42,17.42,0,0,0,540.247,293.88Z" transform="translate(-463.879 -281.362)" fill="#fff"/>
                </g>
              </g>
            </g>
            <path id="Path_55" data-name="Path 55" d="M404.419,258.81H391.08l.307,1.439h13.438Z" transform="translate(-153.906 -146.277)" fill="#4987e5"/>
            <g id="Group_46" data-name="Group 46" transform="translate(0 61.346)">
              <rect id="Rectangle_7" data-name="Rectangle 7" width="93.891" height="69.445" transform="translate(2.688 11.33)" fill="#797c99"/>
              <rect id="Rectangle_8" data-name="Rectangle 8" width="99.267" height="11.33" fill="#797c99"/>
              <rect id="Rectangle_9" data-name="Rectangle 9" width="93.891" height="5.505" transform="translate(2.688 11.33)" fill="#495375"/>
              <g id="Group_4955" data-name="Group 4955" transform="translate(20.043 34.056)">
                <g id="Group_4951" data-name="Group 4951" transform="translate(41.11)">
                  <g id="Group_4950" data-name="Group 4950">
                    <path id="Path_9871" data-name="Path 9871" d="M78.011,94.223H61.847a1.144,1.144,0,0,0-1.144,1.14l-.061,16.168a1.145,1.145,0,0,0,1.144,1.149H78.011a1.145,1.145,0,0,0,1.144-1.144V103.69a1.145,1.145,0,0,0-2.024-.733h0a1.144,1.144,0,0,0-.265.733v5.556a1.145,1.145,0,0,1-1.144,1.145H64.075a1.145,1.145,0,0,1-1.144-1.149l.043-11.59a1.144,1.144,0,0,1,1.144-1.14H78.011a1.144,1.144,0,0,0,1.144-1.144h0A1.145,1.145,0,0,0,78.011,94.223Z" transform="translate(-60.642 -88.608)" fill="#fff"/>
                    <path id="Path_9872" data-name="Path 9872" d="M80.827,74.995a4.764,4.764,0,0,1,4.752,4.751h0a.192.192,0,0,1-.192.192H83.954a.192.192,0,0,1-.192-.192h0a2.935,2.935,0,0,0-5.87,0h0a.192.192,0,0,1-.192.192H76.268a.192.192,0,0,1-.192-.192h0a4.764,4.764,0,0,1,4.751-4.751Z" transform="translate(-71.573 -74.995)" fill="#fff"/>
                  </g>
                  <path id="Path_9873" data-name="Path 9873" d="M61.833,122.937H72.1a1.191,1.191,0,0,0,1.191-1.191h0a1.191,1.191,0,0,0-1.191-1.191H61.833a1.191,1.191,0,0,0-1.191,1.191h0A1.191,1.191,0,0,0,61.833,122.937Z" transform="translate(-54.776 -107.25)" fill="#fff"/>
                  <path id="Path_9874" data-name="Path 9874" d="M84.055,113.35a1.24,1.24,0,0,0,.363.877l.948.948.016-.016,2.461,2.461a1.292,1.292,0,0,0,1.827,0h0a1.292,1.292,0,0,0,0-1.827l-1.547-1.547a1.292,1.292,0,0,1,0-1.827l1.532-1.532a1.292,1.292,0,0,0,0-1.827h0a1.292,1.292,0,0,0-1.827,0L85.381,111.5l-.966.972a1.239,1.239,0,0,0-.36.874Z" transform="translate(-78.372 -98.843)" fill="#fff"/>
                </g>
                <g id="Group_4954" data-name="Group 4954" transform="translate(0 3.276)">
                  <g id="Group_4952" data-name="Group 4952" transform="translate(0)">
                    <path id="Path_9875" data-name="Path 9875" d="M156.468,97.9a4.022,4.022,0,0,0-.368-1.43,3.845,3.845,0,0,0-2.013-1.937,3.691,3.691,0,0,0-1.451-.285,4.077,4.077,0,0,0-1.589.305,3.878,3.878,0,0,0-1.257.833,3.8,3.8,0,0,0-.826,1.249,4.069,4.069,0,0,0-.3,1.569,3.933,3.933,0,0,0,.43,1.832h-1.749v.625h2.138a3.737,3.737,0,0,0,1.354,1.083,4.112,4.112,0,0,0,1.8.389,3.808,3.808,0,0,0,1.465-.277,3.7,3.7,0,0,0,1.18-.771,3.976,3.976,0,0,0,1.187-2.561Zm-3.831,3.609a3.49,3.49,0,0,1-1.333-.25,3.159,3.159,0,0,1-1.756-1.729,3.356,3.356,0,0,1-.257-1.326,3.485,3.485,0,0,1,.25-1.333,3.126,3.126,0,0,1,.7-1.055,3.258,3.258,0,0,1,1.062-.694,3.49,3.49,0,0,1,1.333-.25,3.145,3.145,0,0,1,1.3.264,3.064,3.064,0,0,1,1.013.722,3.45,3.45,0,0,1,.909,2.346,3.376,3.376,0,0,1-.243,1.27,3.288,3.288,0,0,1-.673,1.055,3.2,3.2,0,0,1-1.02.715A3.11,3.11,0,0,1,152.636,101.508Z" transform="translate(-122.164 -91.901)" fill="#fff"/>
                    <path id="Path_9876" data-name="Path 9876" d="M188.394,94.348h-2.055q.07-.291.153-.784a5.866,5.866,0,0,0,.083-.979,4.892,4.892,0,0,0-.187-1.4,3.062,3.062,0,0,0-.548-1.076,2.477,2.477,0,0,0-.875-.687,2.732,2.732,0,0,0-1.18-.243,2.686,2.686,0,0,0-1.173.243,2.436,2.436,0,0,0-.861.687,3.047,3.047,0,0,0-.534,1.076,5.083,5.083,0,0,0-.18,1.4,7.027,7.027,0,0,0,.07.979q.07.493.139.784H179.12q-.111-.541-.18-1.118a9.164,9.164,0,0,1-.069-1.09,10.108,10.108,0,0,1,.118-1.631,5.323,5.323,0,0,1,.465-1.437A3.657,3.657,0,0,1,181,87.442a5.182,5.182,0,0,1,2.575-.59,4.722,4.722,0,0,1,1.624.278,10.545,10.545,0,0,1,1.361.6l.264-.569a9.83,9.83,0,0,0-1.7-.694,6.591,6.591,0,0,0-1.881-.25,4.95,4.95,0,0,0-1.423.2,5.221,5.221,0,0,0-1.222.534,4.562,4.562,0,0,0-.965.777,4.126,4.126,0,0,0-.666.93,5.525,5.525,0,0,0-.562,1.589,9.173,9.173,0,0,0-.16,1.714,9.635,9.635,0,0,0,.077,1.222q.076.6.187,1.166h-1.832v.625h11.717Zm-2.443-1.763a6.99,6.99,0,0,1-.069,1.007q-.069.479-.139.757h-3.873q-.07-.277-.139-.75a7,7,0,0,1-.069-1.014,4.316,4.316,0,0,1,.132-1.09,2.619,2.619,0,0,1,.4-.882,1.985,1.985,0,0,1,.666-.59,1.9,1.9,0,0,1,.923-.215,2.071,2.071,0,0,1,.951.208,1.877,1.877,0,0,1,.68.583,2.612,2.612,0,0,1,.4.881A4.364,4.364,0,0,1,185.951,92.585Z" transform="translate(-162.656 -86.213)" fill="#fff"/>
                    <path id="Path_9877" data-name="Path 9877" d="M230.147,100.036h-3.138V94.247h-.625v5.789h-2.624a1.879,1.879,0,0,1-1.347-.5,1.914,1.914,0,0,1-.528-1.458V94.247h-.625V97.87a2.353,2.353,0,0,1-.173.888,2.173,2.173,0,0,1-.5.75,2.5,2.5,0,0,1-.785.514,2.636,2.636,0,0,1-1.041.194,2.158,2.158,0,0,1-1.728-.652,2.5,2.5,0,0,1-.562-1.694V94.247h-.625v3.485a3.065,3.065,0,0,0,.784,2.332,2.99,2.99,0,0,0,2.131.736,3.472,3.472,0,0,0,1.659-.389,2.471,2.471,0,0,0,1.09-1.138,2.227,2.227,0,0,0,.868,1.014,2.522,2.522,0,0,0,1.381.375h6.386Z" transform="translate(-215.848 -91.901)" fill="#fff"/>
                  </g>
                  <g id="Group_4953" data-name="Group 4953" transform="translate(0.218 12.44)">
                    <path id="Path_9878" data-name="Path 9878" d="M136.192,133.118a3.263,3.263,0,0,1,.768-.374,7.8,7.8,0,0,1,.873-.215c.145-.045.288-.085.43-.121a3.683,3.683,0,0,0,.411-.1,3.553,3.553,0,0,0,.718-.272,1.165,1.165,0,0,0,.477-.423l0-.007a1.076,1.076,0,0,0,.186-.65,1.353,1.353,0,0,0-.175-.724,1.324,1.324,0,0,0-.414-.46,2.255,2.255,0,0,0-1.156-.309,2.315,2.315,0,0,0-1.478.45,1.788,1.788,0,0,0-.584,1.38l0,.118h-.661l.007-.129a2.465,2.465,0,0,1,.83-1.9,3.076,3.076,0,0,1,1.891-.565,2.894,2.894,0,0,1,1.6.477,1.879,1.879,0,0,1,.8,1.667,1.814,1.814,0,0,1-.225.943,1.749,1.749,0,0,1-.569.611,3.321,3.321,0,0,1-.769.34c-.135.042-.278.083-.419.12s-.275.084-.422.125l-.01,0c-.3.058-.589.122-.863.19a3.158,3.158,0,0,0-.707.284,1.466,1.466,0,0,0-.489.453,1.375,1.375,0,0,0-.172.73,1.578,1.578,0,0,0,.165.759,1.483,1.483,0,0,0,.458.491,1.952,1.952,0,0,0,.594.274,2.465,2.465,0,0,0,.642.089,2.724,2.724,0,0,0,1.687-.505,1.9,1.9,0,0,0,.647-1.656l0-.125h.662l0,.124a2.617,2.617,0,0,1-.887,2.169,3.386,3.386,0,0,1-2.106.643,3.018,3.018,0,0,1-1.659-.507,1.974,1.974,0,0,1-.859-1.757,2.2,2.2,0,0,1,.206-1A1.8,1.8,0,0,1,136.192,133.118Z" transform="translate(-103.358 -128.811)" fill="#fff"/>
                    <path id="Path_9879" data-name="Path 9879" d="M161.613,129.434l2.829,7.842h-.713l-.867-2.438h-3.089l-.862,2.438H158.2l2.781-7.842Zm-1.625,4.755h2.652l-1.349-3.828Z" transform="translate(-133.528 -129.252)" fill="#fff"/>
                    <path id="Path_9880" data-name="Path 9880" d="M184.883,132.879H189v-3.445h.659v7.842H189v-3.747h-4.117v3.747h-.658v-7.842h.658Z" transform="translate(-166.343 -129.252)" fill="#fff"/>
                    <path id="Path_9881" data-name="Path 9881" d="M213.588,136.308l2.584-6.875h.809v7.842h-.658v-6.52l-2.439,6.52h-.591l-2.415-6.525v6.525h-.659v-7.842h.809Z" transform="translate(-201.256 -129.252)" fill="#fff"/>
                    <path id="Path_9882" data-name="Path 9882" d="M241.718,129.434l2.561,6.875,2.584-6.875h.809v7.842h-.658v-6.52l-2.439,6.52h-.591l-2.415-6.525v6.525h-.659v-7.842Z" transform="translate(-240.909 -129.252)" fill="#fff"/>
                  </g>
                  <rect id="Rectangle_4833" data-name="Rectangle 4833" width="4.457" height="0.625" transform="translate(33.25 8.135)" fill="#fff"/>
                </g>
              </g>
            </g>
            <g id="Group_66" data-name="Group 66" transform="translate(129.772)">
              <g id="Group_48" data-name="Group 48" transform="translate(4.099 117.35)">
                <path id="Path_60" data-name="Path 60" d="M445.434,262.481l44.882,13.414a15.88,15.88,0,0,1,9.071,23.382L468.64,350.542l-17.466-7.751,25.1-47.731-51.116-10.685a16.754,16.754,0,0,1-12.4-21.893h32.676Z" transform="translate(-411.824 -262.481)" fill="#454f6b"/>
                <g id="Group_47" data-name="Group 47" transform="translate(33.01 81.895)">
                  <path id="Path_61" data-name="Path 61" d="M442.178,326.886l1.311-1.984,9.925,4.4-2.337,4.253-11.063-3.1C440.693,329.241,441.41,328.048,442.178,326.886Z" transform="translate(-433.578 -324.901)" fill="#f2c9ad"/>
                  <path id="Path_62" data-name="Path 62" d="M449.572,334.133l.924,2.354-1.233-.869a2.892,2.892,0,0,0-1.67-.529h-5.8a56.448,56.448,0,0,1,2.884-5.955l11.063,3.1-.668,1.216h-5.041A.5.5,0,0,0,449.572,334.133Z" transform="translate(-438.243 -323.581)" fill="#fff"/>
                  <path id="Path_63" data-name="Path 63" d="M451.831,343.239H428.382l.428-1.656a56.587,56.587,0,0,1,2.526-7.522h5.8a2.892,2.892,0,0,1,1.67.529l1.233.869-.924-2.354a.5.5,0,0,1,.462-.678h5.041l3.725,3.5a9.1,9.1,0,0,0,6.232,2.469h2.539a6.57,6.57,0,0,1,5.771,3.434l-4.835.861A35.511,35.511,0,0,1,451.831,343.239Z" transform="translate(-427.782 -322.554)" fill="#422c4f"/>
                  <path id="Path_64" data-name="Path 64" d="M451.822,341a35.5,35.5,0,0,0,6.215-.548l4.835-.861a6.547,6.547,0,0,1,.8,2.911l-7.387.669q-1.753.157-3.513.159h-25l.6-2.33Z" transform="translate(-427.773 -320.318)" fill="#fff"/>
                  <path id="Path_65" data-name="Path 65" d="M441.969,324.9l9.925,4.4-1.072,1.952-10.807-3.372Z" transform="translate(-432.058 -324.902)" fill="#422c4f"/>
                </g>
              </g>
              <g id="Group_58" data-name="Group 58" transform="translate(24.395)">
                <path id="Path_66" data-name="Path 66" d="M450.928,204.855l1.359-7.708a5.4,5.4,0,0,1,5.316-4.462h7.734l-.691,3.66a19.731,19.731,0,0,0,.143,8.006l.339,1.5a1.013,1.013,0,0,1-.988,1.236h-1.564A10.739,10.739,0,0,1,445.7,212.7l-9.592-7.368,5.092,3.557A6.248,6.248,0,0,0,450.928,204.855Z" transform="translate(-427.656 -166.907)" fill="#f2c9ad"/>
                <path id="Path_67" data-name="Path 67" d="M465.456,190.672l-.5,2.641h-7.734a5.4,5.4,0,0,0-5.316,4.462l-1.359,7.708a6.248,6.248,0,0,1-9.732,4.037l-5.092-3.557h0V190.672Z" transform="translate(-427.276 -167.535)" fill="#eba58e"/>
                <g id="Group_49" data-name="Group 49" transform="translate(1.734 38.428)">
                  <path id="Path_68" data-name="Path 68" d="M451.075,202.327l9.592,7.368-1.277,3.664-8.315-11.031Z" transform="translate(-444.362 -202.327)" fill="#422c4f"/>
                  <path id="Path_69" data-name="Path 69" d="M452.049,212.5l6.714-10.174,8.315,11.031L464.9,219.6Z" transform="translate(-452.049 -202.327)" fill="#f2c9ad"/>
                </g>
                <path id="Path_70" data-name="Path 70" d="M439.2,197.667c-.144.882.123,1.661.6,1.738s.979-.573,1.124-1.455-.123-1.661-.6-1.738S439.341,196.786,439.2,197.667Z" transform="translate(-407.283 -165.808)" fill="#422c4f"/>
                <g id="Group_50" data-name="Group 50" transform="translate(30.726 27.069)">
                  <path id="Path_71" data-name="Path 71" d="M441.438,195.355a2.272,2.272,0,0,0-2.446.112c-.745.493-1.439-.706-.7-1.2a3.671,3.671,0,0,1,3.844-.111.693.693,0,0,1-.7,1.2Z" transform="translate(-437.977 -193.669)" fill="#422c4f"/>
                </g>
                <g id="Group_52" data-name="Group 52" transform="translate(15.934 33.982)">
                  <g id="Group_51" data-name="Group 51">
                    <path id="Path_72" data-name="Path 72" d="M448.643,202.2l-1.549.534a11.855,11.855,0,0,1-7.036.214l-3.868-1.089.908-1.812,2.96.821a11.855,11.855,0,0,0,7.036-.214l1.549-.534a27.607,27.607,0,0,1,4.2-1.088l.555-.1.506,2.013-1.061.165A27.607,27.607,0,0,0,448.643,202.2Z" transform="translate(-432.272 -198.938)" fill="#fff"/>
                    <path id="Path_73" data-name="Path 73" d="M439.844,201.384l3.868,1.089a11.855,11.855,0,0,0,7.036-.214l1.549-.534a27.605,27.605,0,0,1,4.2-1.088l1.061-.165.167.667a5.946,5.946,0,0,1-.177,3.481l-.869,2.394a11.147,11.147,0,0,1-9.866,7.327h0a11.15,11.15,0,0,1-7.665-2.5l-3.225-2.637Z" transform="translate(-435.926 -198.459)" fill="#81d3cf"/>
                  </g>
                  <path id="Path_74" data-name="Path 74" d="M453.695,200.584l-.362,2.056a6.244,6.244,0,0,1-6.522,5.15l4.009-8Z" transform="translate(-445.995 -198.673)" fill="#422c4f" opacity="0.3"/>
                </g>
                <g id="Group_57" data-name="Group 57">
                  <path id="Path_75" data-name="Path 75" d="M455.262,203.861l2.928,8.347a.4.4,0,0,1-.42.523h0a6.993,6.993,0,0,1-5.23-3.449l-3.715-6.442Z" transform="translate(-437.222 -163.739)" fill="#454f6b"/>
                  <g id="Group_56" data-name="Group 56">
                    <path id="Path_76" data-name="Path 76" d="M453.458,200.4l-1.615,9.148a2.541,2.541,0,0,1-3.385,1.94l-15.9-5.89V194.215a21.178,21.178,0,0,1,21.178-21.178h0a21.172,21.172,0,0,1,21.161,20.54h-13.3A8.257,8.257,0,0,0,453.458,200.4Z" transform="translate(-432.554 -173.037)" fill="#65b2ff"/>
                    <g id="Group_55" data-name="Group 55" transform="translate(5.169 3.494)">
                      <g id="Group_53" data-name="Group 53">
                        <path id="Path_77" data-name="Path 77" d="M449.361,189.4a2.858,2.858,0,0,0,2.536-1.536,11.948,11.948,0,0,1,10.617-6.448,2.858,2.858,0,1,0,0-5.716,17.649,17.649,0,0,0-15.684,9.518,2.859,2.859,0,0,0,2.531,4.183Z" transform="translate(-446.504 -175.7)" fill="#fff"/>
                      </g>
                      <g id="Group_54" data-name="Group 54" transform="translate(21.788 2.743)">
                        <path id="Path_78" data-name="Path 78" d="M442.8,183.589a2.859,2.859,0,0,0,1.69-5.167l-.134-.1a2.858,2.858,0,1,0-3.33,4.646l.089.066A2.85,2.85,0,0,0,442.8,183.589Z" transform="translate(-439.836 -177.791)" fill="#fff"/>
                      </g>
                    </g>
                    <path id="Path_79" data-name="Path 79" d="M448.445,206.6a2.541,2.541,0,0,0,3.385-1.94l1.615-9.148a8.257,8.257,0,0,1,8.132-6.821h13.3c.007.213.017.424.017.638v1.959H462.281a6.351,6.351,0,0,0-6.254,5.248l-1.6,9.076a5.082,5.082,0,0,1-7.045,3.769l-13.318-5.841a2.539,2.539,0,0,1-1.521-2.326v-.5Z" transform="translate(-432.541 -168.152)" fill="#4987e5"/>
                  </g>
                </g>
              </g>
              <g id="Group_62" data-name="Group 62" transform="translate(0 44.727)">
                <g id="Group_59" data-name="Group 59" transform="translate(0 3.301)">
                  <path id="Path_80" data-name="Path 80" d="M491.912,274.081l-3.894-17.03,5.59-30.63a8.63,8.63,0,0,0-4.318-9.1l-12.854-7.1a4.607,4.607,0,0,0-5.227.535h0a53.481,53.481,0,0,0-18.461,35.816l-2.419,26.913a5.032,5.032,0,0,0,5.012,5.483h32.676A3.994,3.994,0,0,0,491.912,274.081Z" transform="translate(-450.309 -209.644)" fill="#f0bf6c"/>
                  <path id="Path_81" data-name="Path 81" d="M453.379,219.786l-.108.417a18.431,18.431,0,0,0,2.707,15.152l12.888,18.532,2.62-14.353Z" transform="translate(-431.157 -206.48)" fill="#eba25d"/>
                </g>
                <g id="Group_61" data-name="Group 61" transform="translate(24.048)">
                  <g id="Group_60" data-name="Group 60" transform="translate(14.934 7.516)">
                    <path id="Path_82" data-name="Path 82" d="M451.3,212.857l3.531,1.826-3.531,3.811-1.205-2.18Z" transform="translate(-450.097 -212.857)" fill="#f0bf6c"/>
                    <path id="Path_83" data-name="Path 83" d="M452.323,214.249l.8,6.511-3.638-3.449Z" transform="translate(-447.586 -212.423)" fill="#eba25d"/>
                  </g>
                  <path id="Path_84" data-name="Path 84" d="M452.049,210.429l3.745-3.3,13.364,7.3-1.825,7.728Z" transform="translate(-452.049 -207.128)" fill="#f5d896"/>
                </g>
              </g>
              <g id="Group_65" data-name="Group 65" transform="translate(21.612 56.549)">
                <g id="Group_63" data-name="Group 63">
                  <path id="Path_85" data-name="Path 85" d="M403.213,250.974h9.967a3.36,3.36,0,0,1,3.36,3.36v6.228a3.359,3.359,0,0,1-3.36,3.36h-8.069v-2.477h0a9.176,9.176,0,0,1-6.484-2.686l-1.211-1.212Z" transform="translate(-325.319 -205.27)" fill="#f2c9ad"/>
                  <path id="Path_86" data-name="Path 86" d="M438.263,252.977l-5.8,6.573-24.892-5.787,3.444-9.209Z" transform="translate(-360.37 -207.273)" fill="#f2c9ad"/>
                  <path id="Path_87" data-name="Path 87" d="M430.558,244.555l1.215.376.393,10.008-5.052-1.174Z" transform="translate(-379.909 -207.273)" fill="#eba58e"/>
                  <path id="Path_88" data-name="Path 88" d="M436.238,217.8h0a7.81,7.81,0,0,1,10.735,1.044l25.82,29.95,4.667,1.573-4.336,11.6-2.447-.53a19.784,19.784,0,0,1-10.142-5.7L435.4,229.331A7.808,7.808,0,0,1,436.238,217.8Z" transform="translate(-433.248 -216.139)" fill="#f0bf6c"/>
                  <path id="Path_89" data-name="Path 89" d="M427.873,254.665l.138-.369,4.336-11.6.429-1.147a1.269,1.269,0,0,1,1.635-.744l4.268,1.6a1.27,1.27,0,0,1,.745,1.635l-.348.93-4.055,10.845-.5,1.337a1.271,1.271,0,0,1-1.635.745l-4.268-1.6A1.27,1.27,0,0,1,427.873,254.665Z" transform="translate(-388.136 -208.467)" fill="#f5d896"/>
                  <path id="Path_90" data-name="Path 90" d="M442.9,220.1a7.867,7.867,0,0,0-9.656-1.807c.177-.168.358-.332.555-.485h0a7.81,7.81,0,0,1,10.735,1.044l25.82,29.95,4.667,1.573-.7,1.862-5.241-1.767Z" transform="translate(-430.813 -216.139)" fill="#f5d896"/>
                </g>
                <g id="Group_64" data-name="Group 64" transform="translate(71.314 51.061)">
                  <path id="Path_91" data-name="Path 91" d="M407.253,260.155a2.858,2.858,0,0,0-3.881-1.132l-.01.005c.058-.037.107-.083.169-.115l6.392-3.5a2.858,2.858,0,1,1,2.747,5.013l-6.381,3.5A2.849,2.849,0,0,0,407.253,260.155Z" transform="translate(-402.048 -255.057)" fill="#422c4f"/>
                  <path id="Path_92" data-name="Path 92" d="M411.215,263.418a2.85,2.85,0,0,1-1.545-5.249l.01-.005a2.851,2.851,0,0,1,2.917,4.9l-.011.006A2.844,2.844,0,0,1,411.215,263.418Z" transform="translate(-408.356 -254.198)" fill="#495375"/>
                </g>
              </g>
            </g>
          </g>
          <g id="Group_68" data-name="Group 68" transform="translate(0 188.35)">
            <path id="Path_93" data-name="Path 93" d="M635.587,380.069c-1.308-4.261-1.993-6.075-10.75-6.813-2.4-.2-4.806.6-7.195.325s-4.936-1.934-4.97-4.339c-.038-2.575,2.777-4.862,1.942-7.3-.617-1.8-2.881-2.4-4.777-2.289s-3.853.647-5.653.037c-2.205-.746-3.559-3.1-3.777-5.418a15.766,15.766,0,0,1,1.295-6.805,26.908,26.908,0,0,0,1.926-6.692c.451-4.934-2.385-9.675-6.1-12.959a26.362,26.362,0,0,0-18.886-6.485c-6.665.419-14.85,2.923-18.663,8.789a15.922,15.922,0,0,0-2.211,11.8c.354,1.7.99,3.444.525,5.113-.682,2.442-3.359,3.642-5.718,4.57s-5.016,2.254-5.526,4.736c-.463,2.251,1.165,4.477,3.157,5.623s4.316,1.525,6.5,2.225,4.422,1.887,5.392,3.969c.83,1.78.588,3.9,1.308,5.725,1.216,3.088,4.969,4.551,8.264,4.159s6.228-2.213,8.988-4.055A17.8,17.8,0,0,1,585,371.62a5.685,5.685,0,0,1,4.776.388c1.731,1.12,2.641,3.5,4.659,3.924,1.956.411,3.651-1.261,5.137-2.6s3.87-2.453,5.332-1.089a7.372,7.372,0,0,1,1.259,2.287c1.54,3.092,5.547,4.113,8.979,3.729s6.691-1.8,10.128-2.149S634.735,377.295,635.587,380.069Z" transform="translate(-523.808 -315.136)" fill="#c7d2d7"/>
            <path id="Path_94" data-name="Path 94" d="M616.476,359.282a8.441,8.441,0,0,0-8.57,2.182c-1.362,1.446-2.141,3.782-1,5.408.959,1.363,2.894,1.674,4.526,1.338a48.149,48.149,0,0,0,4.7-1.678,5.338,5.338,0,0,1,4.793.387,5.67,5.67,0,0,0,.993.731c2.337,1.064-.244-3.373-.543-3.978A8.52,8.52,0,0,0,616.476,359.282Z" transform="translate(-589.022 -303.401)" fill="#c7d2d7"/>
            <path id="Path_95" data-name="Path 95" d="M627.906,340.522a3.786,3.786,0,0,0-4.1,1.388c-.937,1.546-.088,3.681,1.388,4.723,1.831,1.294,8.241,2.68,9.58-.117C635.848,344.281,629.818,340.971,627.906,340.522Z" transform="translate(-623.415 -309.17)" fill="#c7d2d7"/>
            <path id="Path_96" data-name="Path 96" d="M621,338.744a2.424,2.424,0,0,1-1.71,1.122,7.184,7.184,0,0,1-2.107-.024,8.948,8.948,0,0,1-3.59-.912,3.057,3.057,0,0,1-1.63-3.087C612.971,331.216,623.231,334.623,621,338.744Z" transform="translate(-594.738 -311.286)" fill="#c7d2d7"/>
            <path id="Path_97" data-name="Path 97" d="M576.163,319.141a3.1,3.1,0,0,1,2.023,2.758,2.77,2.77,0,0,1-1.459,2.148,5.857,5.857,0,0,1-2.6.648,4.357,4.357,0,0,1-3.2-.813,9.336,9.336,0,0,1-1.254-1.775,5.711,5.711,0,0,0-3.108-2.24c-.736-.211-1.862-.419-1.885-1.388s1.283-1.653,2.1-1.83a3.439,3.439,0,0,1,2.137.407,19.34,19.34,0,0,0,3.241,1.172A21.827,21.827,0,0,1,576.163,319.141Z" transform="translate(-489.634 -316.598)" fill="#c7d2d7"/>
          </g>
        </g>
      </g>
      <g id="Group_71" data-name="Group 71" transform="translate(22.708 9.981)">
        <rect id="Rectangle_10" data-name="Rectangle 10" width="104.283" height="2.054" transform="translate(119.49)" fill="url(#linear-gradient)"/>
        <rect id="Rectangle_11" data-name="Rectangle 11" width="104.283" height="2.054" transform="translate(107.168 4.091)" fill="url(#linear-gradient)"/>
        <rect id="Rectangle_12" data-name="Rectangle 12" width="104.283" height="2.054" transform="translate(192.297 159.671)" fill="url(#linear-gradient)"/>
        <rect id="Rectangle_13" data-name="Rectangle 13" width="104.284" height="2.054" transform="translate(179.975 163.762)" fill="url(#linear-gradient)"/>
        <rect id="Rectangle_14" data-name="Rectangle 14" width="104.283" height="2.054" transform="translate(105.809 48.752)" fill="url(#linear-gradient)"/>
        <rect id="Rectangle_15" data-name="Rectangle 15" width="143.11" height="2.054" transform="translate(61.203 44.694)" fill="url(#linear-gradient)"/>
        <rect id="Rectangle_16" data-name="Rectangle 16" width="143.11" height="2.054" transform="translate(77.183 40.209)" fill="url(#linear-gradient)"/>
        <rect id="Rectangle_17" data-name="Rectangle 17" width="104.283" height="2.054" transform="translate(178.865 97.248)" fill="url(#linear-gradient)"/>
        <rect id="Rectangle_18" data-name="Rectangle 18" width="143.11" height="2.054" transform="translate(134.259 93.19)" fill="url(#linear-gradient)"/>
        <rect id="Rectangle_19" data-name="Rectangle 19" width="143.11" height="2.054" transform="translate(150.239 88.705)" fill="url(#linear-gradient)"/>
        <rect id="Rectangle_20" data-name="Rectangle 20" width="104.283" height="2.054" transform="translate(14.295 158.829)" fill="url(#linear-gradient)"/>
        <rect id="Rectangle_21" data-name="Rectangle 21" width="143.11" height="2.054" transform="translate(0 154.77)" fill="url(#linear-gradient)"/>
        <rect id="Rectangle_22" data-name="Rectangle 22" width="143.11" height="2.054" transform="translate(15.981 150.285)" fill="url(#linear-gradient)"/>
      </g>
    </g>
  </g>
</svg>
