<svg xmlns="http://www.w3.org/2000/svg" width="159.477" height="40.62" viewBox="0 0 159.477 40.62">
  <g id="appstore" transform="translate(-24.129 -10.59)">
    <g id="Layer_1" data-name="Layer 1">
      <g id="xHwL4N.tif">
        <path id="Path_2426" data-name="Path 2426" d="M34.13,47.51h-.88c-.28-.09-.57-.16-.84-.26a6.22,6.22,0,0,1-2.4-1.8,23.17,23.17,0,0,1-4.11-6.52,21.72,21.72,0,0,1-1.77-8.57,12.27,12.27,0,0,1,1.52-6.08,9,9,0,0,1,5.91-4.46,6.08,6.08,0,0,1,3.15,0c1,.31,2.07.67,3.09,1a3.46,3.46,0,0,0,2.69.15c.61-.26,1.25-.47,1.87-.7a10.07,10.07,0,0,1,3.17-.76,9.11,9.11,0,0,1,5.84,1.74,7.55,7.55,0,0,1,1.82,1.92L53,23.3a9.43,9.43,0,0,0-2,1.83,7.82,7.82,0,0,0-1.69,6.37,7.68,7.68,0,0,0,2.12,4.28,8.58,8.58,0,0,0,2.45,1.77c.19.09.28.18.18.4-.16.38-.28.77-.43,1.16a21.07,21.07,0,0,1-2.55,4.56,13,13,0,0,1-2.47,2.79,4.39,4.39,0,0,1-3.09,1A7.12,7.12,0,0,1,43,46.74a7.22,7.22,0,0,0-5.36-.39c-.46.14-.89.37-1.35.52C35.59,47.1,34.86,47.3,34.13,47.51Z" fill="#f2f2f4"/>
        <path id="Path_2427" data-name="Path 2427" d="M46.45,10.59a12.2,12.2,0,0,1,0,1.75,8.11,8.11,0,0,1-3,5.24,6.11,6.11,0,0,1-4.31,1.49,5.21,5.21,0,0,1,.06-1.9,8.24,8.24,0,0,1,3.58-5.26A7.86,7.86,0,0,1,46,10.64l.16-.05Z" fill="#f2f2f4"/>
      </g>
      <path id="Path_2428" data-name="Path 2428" d="M66.75,13h3.18a4.89,4.89,0,0,1,3.63,1.28,5,5,0,0,1,1.27,3.65,5,5,0,0,1-1.28,3.65,4.88,4.88,0,0,1-3.62,1.29H66.75Zm3.14,9.11a4,4,0,0,0,3-1.05,4.35,4.35,0,0,0,1-3.14q0-4.17-4-4.17H67.61v8.36Z" fill="#f2f2f4"/>
      <path id="Path_2429" data-name="Path 2429" d="M77.88,22.55a2.91,2.91,0,0,1-1.1-1.23,4.61,4.61,0,0,1,0-3.72,2.92,2.92,0,0,1,1.1-1.23,3.32,3.32,0,0,1,3.28,0,2.86,2.86,0,0,1,1.1,1.23,4.69,4.69,0,0,1,0,3.72,2.86,2.86,0,0,1-1.1,1.23A3.32,3.32,0,0,1,77.88,22.55Zm3.3-1a3.16,3.16,0,0,0,.59-2.06,3.18,3.18,0,0,0-.59-2.05,2.22,2.22,0,0,0-3.3,0,3.21,3.21,0,0,0-.59,2.05,3.22,3.22,0,0,0,.57,2.06,2.253,2.253,0,0,0,3.32-.04Z" fill="#f2f2f4"/>
      <path id="Path_2430" data-name="Path 2430" d="M93.64,16.1h.88L92,22.89h-.88l-2-5.68-2.06,5.68h-.88L83.71,16.1h.91l2,5.78,2.09-5.78h.84l2,5.78Z" fill="#f2f2f4"/>
      <path id="Path_2431" data-name="Path 2431" d="M101.72,18.56v4.33h-.85V18.62a2.2,2.2,0,0,0-.41-1.47,1.63,1.63,0,0,0-1.29-.46,2.17,2.17,0,0,0-1.62.62A2.24,2.24,0,0,0,96.94,19v3.93h-.85V16.1h.84v1.16a2.27,2.27,0,0,1,.93-1,2.82,2.82,0,0,1,1.41-.34Q101.72,15.93,101.72,18.56Z" fill="#f2f2f4"/>
      <path id="Path_2432" data-name="Path 2432" d="M103.94,22.89V13h.85v9.87Z" fill="#f2f2f4"/>
      <path id="Path_2433" data-name="Path 2433" d="M108.11,22.55a2.91,2.91,0,0,1-1.1-1.23,4.61,4.61,0,0,1,0-3.72,2.92,2.92,0,0,1,1.1-1.23,3.32,3.32,0,0,1,3.28,0,2.86,2.86,0,0,1,1.1,1.23,4.69,4.69,0,0,1,0,3.72,2.86,2.86,0,0,1-1.1,1.23,3.32,3.32,0,0,1-3.28,0Zm3.3-1a3.16,3.16,0,0,0,.59-2.06,3.18,3.18,0,0,0-.59-2.05,2.22,2.22,0,0,0-3.3,0,3.21,3.21,0,0,0-.59,2.05,3.22,3.22,0,0,0,.57,2.06,2.241,2.241,0,0,0,3.31-.04Z" fill="#f2f2f4"/>
      <path id="Path_2434" data-name="Path 2434" d="M119.21,16.57a2.74,2.74,0,0,1,.61,1.95v4.37H119V21.67a2.2,2.2,0,0,1-.85,1,2.42,2.42,0,0,1-1.29.34,2.72,2.72,0,0,1-1.2-.27,2.12,2.12,0,0,1-.86-.74,1.86,1.86,0,0,1-.31-1,1.66,1.66,0,0,1,.39-1.18,2.39,2.39,0,0,1,1.3-.6,13.66,13.66,0,0,1,2.53-.18H119v-.52a2,2,0,0,0-.38-1.35,1.51,1.51,0,0,0-1.19-.43,4,4,0,0,0-1.18.17,4.7,4.7,0,0,0-1.17.57l-.32-.66a4.21,4.21,0,0,1,1.23-.6,4.65,4.65,0,0,1,1.4-.22,2.42,2.42,0,0,1,1.82.57Zm-.81,5.05a2.19,2.19,0,0,0,.58-1.57V19.6h-.27a14.32,14.32,0,0,0-2.06.11,1.93,1.93,0,0,0-1,.39,1,1,0,0,0-.29.79,1.23,1.23,0,0,0,.45,1,1.64,1.64,0,0,0,1.11.38,2,2,0,0,0,1.48-.64Z" fill="#f2f2f4"/>
      <path id="Path_2435" data-name="Path 2435" d="M127.83,13v9.87H127v-1.3a2.24,2.24,0,0,1-.91,1,2.75,2.75,0,0,1-1.43.36,2.86,2.86,0,0,1-1.58-.44A2.92,2.92,0,0,1,122,21.3a4.34,4.34,0,0,1-.38-1.87,4.21,4.21,0,0,1,.38-1.84,2.81,2.81,0,0,1,2.65-1.66,2.75,2.75,0,0,1,1.43.36,2.24,2.24,0,0,1,.91,1V13Zm-1.44,8.49a3.19,3.19,0,0,0,.58-2.05,3.25,3.25,0,0,0-.57-2.06,2.251,2.251,0,0,0-3.31-.01,3.15,3.15,0,0,0-.59,2,3.23,3.23,0,0,0,.59,2.06,2.23,2.23,0,0,0,3.3,0Z" fill="#f2f2f4"/>
      <path id="Path_2436" data-name="Path 2436" d="M134.78,16.1h2v.69h-2v6.1h-.85v-6.1h-1.34V16.1h1.34v-.34a2.8,2.8,0,0,1,.64-2,2.8,2.8,0,0,1,2-.75h.49l.07.7h-.64a1.71,1.71,0,0,0-1.26.54,2.16,2.16,0,0,0-.41,1.42Z" fill="#f2f2f4"/>
      <path id="Path_2437" data-name="Path 2437" d="M141.56,16.67l-.6.06a2.28,2.28,0,0,0-1.6.71,2.23,2.23,0,0,0-.5,1.47v4H138V16.1h.84v1.19a2.1,2.1,0,0,1,.88-.94,3.48,3.48,0,0,1,1.41-.39h.36Z" fill="#f2f2f4"/>
      <path id="Path_2438" data-name="Path 2438" d="M143.67,22.55a2.91,2.91,0,0,1-1.1-1.23,4.61,4.61,0,0,1,0-3.72,2.92,2.92,0,0,1,1.1-1.23,3.32,3.32,0,0,1,3.28,0,2.86,2.86,0,0,1,1.1,1.23,4.69,4.69,0,0,1,0,3.72,2.86,2.86,0,0,1-1.1,1.23,3.32,3.32,0,0,1-3.28,0Zm3.3-1a3.16,3.16,0,0,0,.59-2.06A3.18,3.18,0,0,0,147,17.4a2.22,2.22,0,0,0-3.3,0,3.21,3.21,0,0,0-.59,2.05,3.22,3.22,0,0,0,.57,2.06,2.3,2.3,0,0,0,3.32,0Z" fill="#f2f2f4"/>
      <path id="Path_2439" data-name="Path 2439" d="M159.83,18.56v4.33H159V18.62a2.38,2.38,0,0,0-.36-1.48,1.4,1.4,0,0,0-1.16-.46,1.83,1.83,0,0,0-1.45.62,2.44,2.44,0,0,0-.54,1.67v3.92h-.85V18.62a2.38,2.38,0,0,0-.36-1.48,1.4,1.4,0,0,0-1.16-.46,1.83,1.83,0,0,0-1.45.62,2.44,2.44,0,0,0-.54,1.67v3.92h-.85V16.1h.84v1.12a2.13,2.13,0,0,1,.85-1,2.46,2.46,0,0,1,1.28-.33,2,2,0,0,1,2.09,1.34,2.22,2.22,0,0,1,.9-1,2.67,2.67,0,0,1,1.39-.36Q159.83,15.93,159.83,18.56Z" fill="#f2f2f4"/>
      <path id="Path_2440" data-name="Path 2440" d="M168.93,22.21v.71a5,5,0,0,1-.66,0,2.28,2.28,0,0,1-1.74-.62,2.38,2.38,0,0,1-.59-1.7V16.78H164.6V16.1h1.34V14h.85v2.1h2v.69h-2v3.75a1.85,1.85,0,0,0,.4,1.29,1.51,1.51,0,0,0,1.17.43A4.37,4.37,0,0,0,168.93,22.21Z" fill="#f2f2f4"/>
      <path id="Path_2441" data-name="Path 2441" d="M175.78,18.56v4.33h-.85V18.62a2.2,2.2,0,0,0-.41-1.47,1.63,1.63,0,0,0-1.29-.46,2.17,2.17,0,0,0-1.62.62A2.24,2.24,0,0,0,171,19v3.93h-.85V13H171v4.21a2.24,2.24,0,0,1,.93-1,2.83,2.83,0,0,1,1.39-.34Q175.78,15.93,175.78,18.56Z" fill="#f2f2f4"/>
      <path id="Path_2442" data-name="Path 2442" d="M183.59,19.6h-5.14a2.92,2.92,0,0,0,.67,2,2.32,2.32,0,0,0,1.79.68,3.36,3.36,0,0,0,2.23-.84l.34.67a3.28,3.28,0,0,1-1.14.67,4.13,4.13,0,0,1-1.42.25,3.23,3.23,0,0,1-2.45-.94,3.58,3.58,0,0,1-.9-2.58,4.13,4.13,0,0,1,.4-1.86,3,3,0,0,1,1.12-1.25,3.11,3.11,0,0,1,1.66-.44,2.62,2.62,0,0,1,2.09.87,3.57,3.57,0,0,1,.76,2.42Zm-4.41-2.35a2.83,2.83,0,0,0-.7,1.72h4.33a2.65,2.65,0,0,0-.56-1.73,1.88,1.88,0,0,0-1.5-.61,2.07,2.07,0,0,0-1.57.61Z" fill="#f2f2f4"/>
      <path id="Path_2443" data-name="Path 2443" d="M80.06,46.89l-1.61-3.74H70.58L69,46.89H65.21L73,30h3l7.78,16.92ZM71.8,40.31h5.42L74.52,34Z" fill="#f2f2f4"/>
      <path id="Path_2444" data-name="Path 2444" d="M94.88,35.59a5.18,5.18,0,0,1,1.85,2.18A7.52,7.52,0,0,1,97.39,41a7.36,7.36,0,0,1-.66,3.2,4.83,4.83,0,0,1-4.55,2.87A4.75,4.75,0,0,1,90,46.59a3.59,3.59,0,0,1-1.5-1.38v6H84.89V35.1h3.58v1.66A3.67,3.67,0,0,1,90,35.33a4.68,4.68,0,0,1,2.21-.52A4.81,4.81,0,0,1,94.88,35.59Zm-1.79,7.87a3.81,3.81,0,0,0,.7-2.46,4.06,4.06,0,0,0-.7-2.53,2.34,2.34,0,0,0-2-.9,2.37,2.37,0,0,0-2,.88,4,4,0,0,0-.7,2.51,3.91,3.91,0,0,0,.7,2.48,2.37,2.37,0,0,0,2,.88,2.4,2.4,0,0,0,2-.85Z" fill="#f2f2f4"/>
      <path id="Path_2445" data-name="Path 2445" d="M109.59,35.59a5.18,5.18,0,0,1,1.85,2.18A7.52,7.52,0,0,1,112.1,41a7.36,7.36,0,0,1-.66,3.2,4.83,4.83,0,0,1-4.55,2.87,4.75,4.75,0,0,1-2.17-.49,3.59,3.59,0,0,1-1.5-1.38v6H99.6V35.1h3.58v1.66a3.67,3.67,0,0,1,1.51-1.43,4.68,4.68,0,0,1,2.21-.52,4.81,4.81,0,0,1,2.69.78Zm-1.79,7.87a3.81,3.81,0,0,0,.7-2.46,4.06,4.06,0,0,0-.7-2.53,2.34,2.34,0,0,0-2-.9,2.37,2.37,0,0,0-2,.88,4,4,0,0,0-.7,2.51,3.91,3.91,0,0,0,.7,2.48,2.37,2.37,0,0,0,2,.88,2.4,2.4,0,0,0,2.01-.85Z" fill="#f2f2f4"/>
      <path id="Path_2446" data-name="Path 2446" d="M123.53,46.59a8.76,8.76,0,0,1-3-1.43l1.2-2.66a9.39,9.39,0,0,0,5.5,1.7,4.74,4.74,0,0,0,2.44-.52,1.59,1.59,0,0,0,.85-1.43,1.41,1.41,0,0,0-.78-1.27,10.45,10.45,0,0,0-2.77-.89,15.31,15.31,0,0,1-3.56-1.1,4.66,4.66,0,0,1-1.94-1.6,4.23,4.23,0,0,1-.61-2.34,4.61,4.61,0,0,1,.85-2.74,5.68,5.68,0,0,1,2.39-1.88,8.66,8.66,0,0,1,3.55-.68,11.44,11.44,0,0,1,3.47.53,7.12,7.12,0,0,1,2.65,1.42l-1.2,2.66a8.17,8.17,0,0,0-4.9-1.7,4.09,4.09,0,0,0-2.3.56,1.77,1.77,0,0,0-.84,1.55,1.39,1.39,0,0,0,.32.95,2.69,2.69,0,0,0,1.08.66,16.44,16.44,0,0,0,2.15.6,11.93,11.93,0,0,1,4.69,1.85,3.76,3.76,0,0,1,1.43,3.12,4.46,4.46,0,0,1-1.85,3.78,8.47,8.47,0,0,1-5.16,1.38,13.19,13.19,0,0,1-3.66-.52Z" fill="#f2f2f4"/>
      <path id="Path_2447" data-name="Path 2447" d="M144.07,44.34,143.88,47a10.251,10.251,0,0,1-1.39.1,5.54,5.54,0,0,1-3.92-1.18,4.72,4.72,0,0,1-1.24-3.58V37.81H135.1V35.1h2.23V31.65H141V35.1h3v2.71h-3V42.3q0,2.11,2,2.11a9.709,9.709,0,0,0,1.07-.07Z" fill="#f2f2f4"/>
      <path id="Path_2448" data-name="Path 2448" d="M148.05,46.32a5.3,5.3,0,0,1-2.18-2.14,7.27,7.27,0,0,1,0-6.5,5.23,5.23,0,0,1,2.18-2.12,7.64,7.64,0,0,1,6.58,0,5.23,5.23,0,0,1,2.18,2.12,7.27,7.27,0,0,1,0,6.5,5.3,5.3,0,0,1-2.18,2.14A7.53,7.53,0,0,1,148.05,46.32ZM154,40.93a4,4,0,0,0-.68-2.54,2.38,2.38,0,0,0-2-.84q-2.64,0-2.64,3.38t2.64,3.38Q154,44.32,154,40.93Z" fill="#f2f2f4"/>
      <path id="Path_2449" data-name="Path 2449" d="M168.21,37.79l-2,.22a3.16,3.16,0,0,0-2.14.85,2.75,2.75,0,0,0-.62,1.88v6.14h-3.62V35.1h3.48v2a3.9,3.9,0,0,1,3.67-2.23l1.06-.07Z" fill="#f2f2f4"/>
      <path id="Path_2450" data-name="Path 2450" d="M179.78,41.68H172.1a3,3,0,0,0,.92,2.05,3.25,3.25,0,0,0,2.15.64,5.7,5.7,0,0,0,1.81-.3,5.84,5.84,0,0,0,1.64-.85l1,2.42a6.53,6.53,0,0,1-2.1,1.06,8.34,8.34,0,0,1-2.48.38,6.5,6.5,0,0,1-4.69-1.64A5.9,5.9,0,0,1,168.6,41a6.66,6.66,0,0,1,.74-3.19,5.45,5.45,0,0,1,2.06-2.17,5.79,5.79,0,0,1,3-.78,5,5,0,0,1,3.92,1.61,6.27,6.27,0,0,1,1.45,4.37ZM172.86,38a3.29,3.29,0,0,0-.76,1.91h4.63A3.14,3.14,0,0,0,176.1,38a2,2,0,0,0-1.6-.65A2.13,2.13,0,0,0,172.86,38Z" fill="#f2f2f4"/>
    </g>
  </g>
</svg>
