<svg xmlns="http://www.w3.org/2000/svg" width="200" height="80.747" viewBox="0 0 200 80.747">
  <g id="FooterLogo" transform="translate(-60.642 -74.995)">
    <g id="Group_4951" data-name="Group 4951" transform="translate(60.642 74.995)">
      <g id="Group_4950" data-name="Group 4950">
        <path id="Path_9871" data-name="Path 9871" d="M64.481,94.223H118.7a3.839,3.839,0,0,1,3.839,3.825l.2,54.233a3.839,3.839,0,0,1-3.839,3.854H64.481a3.839,3.839,0,0,1-3.839-3.839V125.981a3.839,3.839,0,0,1,6.788-2.458h0a3.837,3.837,0,0,1,.889,2.458v18.636a3.84,3.84,0,0,0,3.839,3.84h39.066a3.839,3.839,0,0,0,3.839-3.854l-.144-38.877a3.839,3.839,0,0,0-3.839-3.825h-46.6a3.839,3.839,0,0,1-3.839-3.839h0A3.839,3.839,0,0,1,64.481,94.223Z" transform="translate(-60.642 -75.388)" fill="#fff"/>
        <path id="Path_9872" data-name="Path 9872" d="M92.015,74.995A15.982,15.982,0,0,0,76.076,90.933h0a.643.643,0,0,0,.644.644h4.807a.643.643,0,0,0,.644-.644h0a9.845,9.845,0,0,1,19.689,0h0a.643.643,0,0,0,.643.644h4.808a.643.643,0,0,0,.643-.644h0A15.982,15.982,0,0,0,92.015,74.995Z" transform="translate(-60.957 -74.995)" fill="#fff"/>
      </g>
      <path id="Path_9873" data-name="Path 9873" d="M99.071,128.546H64.639a4,4,0,0,1-4-4h0a4,4,0,0,1,4-4H99.071a4,4,0,0,1,4,4h0A4,4,0,0,1,99.071,128.546Z" transform="translate(-60.642 -75.926)" fill="#fff"/>
      <path id="Path_9874" data-name="Path 9874" d="M104.159,124.344a4.16,4.16,0,0,1-1.218,2.941l-3.179,3.179-.053-.053-8.255,8.255a4.335,4.335,0,0,1-6.13,0h0a4.334,4.334,0,0,1,0-6.129l5.191-5.191a4.334,4.334,0,0,0,0-6.129l-5.138-5.138a4.334,4.334,0,0,1,0-6.129h0a4.335,4.335,0,0,1,6.13,0l8.2,8.2,3.24,3.262a4.155,4.155,0,0,1,1.209,2.931Z" transform="translate(-61.12 -75.683)" fill="#fff"/>
    </g>
    <g id="Group_4954" data-name="Group 4954" transform="translate(133.887 85.984)">
      <g id="Group_4952" data-name="Group 4952" transform="translate(11.688)">
        <path id="Path_9875" data-name="Path 9875" d="M147.347,106.495a13.491,13.491,0,0,1,1.233-4.8,12.9,12.9,0,0,1,6.752-6.5,12.382,12.382,0,0,1,4.866-.955,13.676,13.676,0,0,1,5.332,1.025,13.008,13.008,0,0,1,4.215,2.795,12.745,12.745,0,0,1,2.77,4.191,13.649,13.649,0,0,1,1,5.262,13.193,13.193,0,0,1-1.443,6.147h5.867v2.1H170.77a12.537,12.537,0,0,1-4.54,3.632,13.792,13.792,0,0,1-6.03,1.3,12.776,12.776,0,0,1-4.913-.931,12.409,12.409,0,0,1-3.958-2.585,13.338,13.338,0,0,1-3.981-8.592ZM160.2,118.6a11.707,11.707,0,0,0,4.471-.838,10.6,10.6,0,0,0,5.891-5.8,11.255,11.255,0,0,0,.861-4.447,11.688,11.688,0,0,0-.839-4.471,10.484,10.484,0,0,0-2.351-3.539,10.928,10.928,0,0,0-3.563-2.328,11.707,11.707,0,0,0-4.471-.838,10.551,10.551,0,0,0-4.354.885,10.279,10.279,0,0,0-3.4,2.421,11.571,11.571,0,0,0-3.05,7.87,11.325,11.325,0,0,0,.815,4.261,11.03,11.03,0,0,0,2.259,3.539,10.746,10.746,0,0,0,3.423,2.4A10.433,10.433,0,0,0,160.2,118.6Z" transform="translate(-147.347 -86.377)" fill="#fff"/>
        <path id="Path_9876" data-name="Path 9876" d="M176.677,113.5h6.892q-.234-.977-.512-2.631a19.672,19.672,0,0,1-.279-3.284,16.412,16.412,0,0,1,.629-4.679,10.273,10.273,0,0,1,1.839-3.609,8.31,8.31,0,0,1,2.934-2.3,9.164,9.164,0,0,1,3.958-.815,9.012,9.012,0,0,1,3.935.815,8.171,8.171,0,0,1,2.888,2.3,10.223,10.223,0,0,1,1.793,3.609,17.046,17.046,0,0,1,.605,4.679,23.57,23.57,0,0,1-.233,3.284q-.234,1.653-.466,2.631h7.125q.372-1.816.605-3.749a30.716,30.716,0,0,0,.233-3.656,33.9,33.9,0,0,0-.4-5.471,17.854,17.854,0,0,0-1.56-4.82,12.268,12.268,0,0,0-5.193-5.471,17.381,17.381,0,0,0-8.638-1.98,15.838,15.838,0,0,0-5.448.932,35.37,35.37,0,0,0-4.564,2l-.885-1.909a32.979,32.979,0,0,1,5.705-2.328,22.108,22.108,0,0,1,6.309-.839,16.6,16.6,0,0,1,4.773.676,17.516,17.516,0,0,1,4.1,1.793,15.3,15.3,0,0,1,3.236,2.608,13.84,13.84,0,0,1,2.235,3.12,18.534,18.534,0,0,1,1.886,5.332,30.777,30.777,0,0,1,.536,5.751,32.316,32.316,0,0,1-.257,4.1q-.256,2-.628,3.911h6.147v2.1h-39.3Zm8.2-5.915a23.458,23.458,0,0,0,.233,3.377q.232,1.607.465,2.538h12.992q.234-.93.466-2.515a23.453,23.453,0,0,0,.232-3.4,14.473,14.473,0,0,0-.442-3.655,8.787,8.787,0,0,0-1.351-2.957A6.657,6.657,0,0,0,195.234,99a6.384,6.384,0,0,0-3.1-.722,6.947,6.947,0,0,0-3.189.7,6.3,6.3,0,0,0-2.282,1.956,8.761,8.761,0,0,0-1.35,2.956A14.637,14.637,0,0,0,184.873,107.587Z" transform="translate(-147.946 -86.213)" fill="#fff"/>
        <path id="Path_9877" data-name="Path 9877" d="M215.848,113.666h10.524V94.247h2.1v19.419h8.8a6.3,6.3,0,0,0,4.517-1.676,6.42,6.42,0,0,0,1.77-4.89V94.247h2.1V106.4a7.893,7.893,0,0,0,.582,2.98,7.289,7.289,0,0,0,1.676,2.515,8.387,8.387,0,0,0,2.632,1.723,8.841,8.841,0,0,0,3.492.652q3.911,0,5.8-2.188a8.392,8.392,0,0,0,1.887-5.682V94.247h2.1v11.689q0,5.356-2.631,7.823a10.028,10.028,0,0,1-7.148,2.469,11.645,11.645,0,0,1-5.565-1.3,8.289,8.289,0,0,1-3.656-3.818,7.471,7.471,0,0,1-2.91,3.4,8.459,8.459,0,0,1-4.633,1.257H215.848Z" transform="translate(-148.746 -86.377)" fill="#fff"/>
      </g>
      <g id="Group_4953" data-name="Group 4953" transform="translate(0 41.728)">
        <path id="Path_9878" data-name="Path 9878" d="M151.3,143.258A10.943,10.943,0,0,0,148.725,142a26.176,26.176,0,0,0-2.93-.722c-.488-.15-.966-.284-1.444-.4a12.344,12.344,0,0,1-1.377-.342,11.908,11.908,0,0,1-2.407-.913,3.906,3.906,0,0,1-1.6-1.42l-.016-.022a3.61,3.61,0,0,1-.624-2.18,4.537,4.537,0,0,1,.588-2.429,4.442,4.442,0,0,1,1.388-1.543,7.566,7.566,0,0,1,3.879-1.037,7.765,7.765,0,0,1,4.957,1.509,6,6,0,0,1,1.96,4.63l.015.4h2.219l-.023-.433c-.152-2.9-1.085-5.046-2.784-6.389a10.318,10.318,0,0,0-6.343-1.894,9.708,9.708,0,0,0-5.384,1.6c-1.737,1.12-2.64,3-2.683,5.592a6.085,6.085,0,0,0,.755,3.163,5.867,5.867,0,0,0,1.91,2.05,11.135,11.135,0,0,0,2.578,1.14c.453.141.933.278,1.407.4q.677.21,1.416.42l.033.009c1,.195,1.977.41,2.894.638a10.592,10.592,0,0,1,2.371.952,4.918,4.918,0,0,1,1.64,1.518,4.611,4.611,0,0,1,.578,2.449,5.291,5.291,0,0,1-.554,2.546,4.975,4.975,0,0,1-1.537,1.646,6.542,6.542,0,0,1-1.993.919,8.261,8.261,0,0,1-2.154.3,9.138,9.138,0,0,1-5.658-1.7c-1.481-1.108-2.212-2.977-2.171-5.555l.006-.418h-2.221l.006.417c.043,3.347,1.044,5.794,2.976,7.274a11.357,11.357,0,0,0,7.064,2.158,10.125,10.125,0,0,0,5.564-1.7c1.846-1.154,2.816-3.133,2.882-5.892a7.384,7.384,0,0,0-.692-3.371A6.021,6.021,0,0,0,151.3,143.258Z" transform="translate(-135.415 -128.811)" fill="#fff"/>
        <path id="Path_9879" data-name="Path 9879" d="M167.693,129.434l-9.49,26.3H160.6l2.908-8.176h10.363l2.893,8.176h2.374l-9.328-26.3Zm5.451,15.949h-8.9l4.525-12.84Z" transform="translate(-135.88 -128.824)" fill="#fff"/>
        <path id="Path_9880" data-name="Path 9880" d="M200.244,140.991h-13.81V129.434h-2.209v26.3h2.209V143.17h13.81v12.568h2.208v-26.3h-2.208Z" transform="translate(-136.412 -128.824)" fill="#fff"/>
        <path id="Path_9881" data-name="Path 9881" d="M221.6,152.495l-8.667-23.061h-2.712v26.3h2.209V133.867l8.182,21.871h1.981l8.1-21.888v21.888h2.21v-26.3h-2.713Z" transform="translate(-136.943 -128.824)" fill="#fff"/>
        <path id="Path_9882" data-name="Path 9882" d="M260.881,129.434l-8.592,23.061-8.667-23.061h-2.712v26.3h2.209V133.867l8.182,21.871h1.981l8.1-21.888v21.888h2.21v-26.3Z" transform="translate(-137.57 -128.824)" fill="#fff"/>
      </g>
      <rect id="Rectangle_4833" data-name="Rectangle 4833" width="14.949" height="2.095" transform="translate(0.271 27.289)" fill="#fff"/>
    </g>
  </g>
</svg>
