<svg xmlns="http://www.w3.org/2000/svg" width="176.64" height="38.382" viewBox="0 0 176.64 38.382">
  <g id="googleplay1" transform="translate(-24.12 -12.639)">
    <g id="Layer_1" data-name="Layer 1">
      <path id="Path_2451" data-name="Path 2451" d="M24.7,49.49a1.85,1.85,0,0,0,2.19.26l19.48-11-5.46-5.49Z" fill="#ff353e"/>
      <path id="Path_2452" data-name="Path 2452" d="M40.91,33.21l5.44-5.47-19.46-11a1.85,1.85,0,0,0-.85-.24h-.37a1.89,1.89,0,0,0-.94.46Z" fill="#00f06f"/>
      <path id="Path_2453" data-name="Path 2453" d="M53.18,31.62l-6.83-3.87-5.44,5.47,5.47,5.5,6.8-3.86a1.86,1.86,0,0,0,0-3.24Z" fill="#ffe200"/>
      <path id="Path_2454" data-name="Path 2454" d="M24.12,18.34v29.8a1.83,1.83,0,0,0,.59,1.36l16.2-16.28L24.73,17a1.83,1.83,0,0,0-.61,1.34Z" fill="#00c1f4"/>
      <path id="Path_2455" data-name="Path 2455" d="M66.75,12.65h3.18a4.89,4.89,0,0,1,3.63,1.28,5,5,0,0,1,1.27,3.65,5,5,0,0,1-1.28,3.65,4.88,4.88,0,0,1-3.62,1.29H66.75Zm3.14,9.11a4,4,0,0,0,3-1.05,4.35,4.35,0,0,0,1-3.14q0-4.17-4-4.17H67.61v8.36Z" fill="#f2f2f4"/>
      <path id="Path_2456" data-name="Path 2456" d="M77.88,22.18a2.91,2.91,0,0,1-1.1-1.23,4.61,4.61,0,0,1,0-3.72A2.92,2.92,0,0,1,77.88,16a3.32,3.32,0,0,1,3.28,0,2.86,2.86,0,0,1,1.1,1.23,4.69,4.69,0,0,1,0,3.72,2.86,2.86,0,0,1-1.1,1.23,3.32,3.32,0,0,1-3.28,0Zm3.3-1a3.16,3.16,0,0,0,.59-2.06,3.18,3.18,0,0,0-.6-2.12,2.22,2.22,0,0,0-3.3,0,3.21,3.21,0,0,0-.59,2.05,3.22,3.22,0,0,0,.57,2.06,2.342,2.342,0,0,0,3.33.03Z" fill="#f2f2f4"/>
      <path id="Path_2457" data-name="Path 2457" d="M93.64,15.73h.88L92,22.52h-.88l-2-5.68-2.06,5.68h-.88l-2.46-6.79h.91l2,5.78,2.09-5.78h.84l2,5.78Z" fill="#f2f2f4"/>
      <path id="Path_2458" data-name="Path 2458" d="M101.72,18.19v4.33h-.85V18.25a2.2,2.2,0,0,0-.41-1.47,1.63,1.63,0,0,0-1.29-.46,2.17,2.17,0,0,0-1.62.62,2.24,2.24,0,0,0-.61,1.65v3.93h-.85V15.73h.84v1.16a2.27,2.27,0,0,1,.93-1,2.82,2.82,0,0,1,1.41-.34Q101.72,15.56,101.72,18.19Z" fill="#f2f2f4"/>
      <path id="Path_2459" data-name="Path 2459" d="M103.94,22.52V12.65h.85v9.87Z" fill="#f2f2f4"/>
      <path id="Path_2460" data-name="Path 2460" d="M108.11,22.18a2.91,2.91,0,0,1-1.1-1.23,4.61,4.61,0,0,1,0-3.72,2.92,2.92,0,0,1,1.1-1.23,3.32,3.32,0,0,1,3.28,0,2.86,2.86,0,0,1,1.1,1.23,4.69,4.69,0,0,1,0,3.72,2.86,2.86,0,0,1-1.1,1.23,3.32,3.32,0,0,1-3.28,0Zm3.3-1a3.16,3.16,0,0,0,.59-2.06,3.18,3.18,0,0,0-.6-2.12,2.22,2.22,0,0,0-3.3,0,3.21,3.21,0,0,0-.59,2.05,3.22,3.22,0,0,0,.57,2.06,2.33,2.33,0,0,0,3.32.03Z" fill="#f2f2f4"/>
      <path id="Path_2461" data-name="Path 2461" d="M119.21,16.2a2.74,2.74,0,0,1,.61,1.95v4.37H119V21.3a2.2,2.2,0,0,1-.85,1,2.42,2.42,0,0,1-1.29.34,2.72,2.72,0,0,1-1.2-.27,2.12,2.12,0,0,1-.86-.74,1.86,1.86,0,0,1-.31-1,1.66,1.66,0,0,1,.39-1.18,2.39,2.39,0,0,1,1.3-.6,13.66,13.66,0,0,1,2.53-.18H119v-.52a2,2,0,0,0-.38-1.35,1.51,1.51,0,0,0-1.19-.43,4,4,0,0,0-1.18.17,4.7,4.7,0,0,0-1.17.57l-.32-.66a4.21,4.21,0,0,1,1.23-.6,4.65,4.65,0,0,1,1.4-.22,2.42,2.42,0,0,1,1.82.57Zm-.81,5.05a2.19,2.19,0,0,0,.58-1.57v-.46h-.27a14.321,14.321,0,0,0-2.06.11,1.93,1.93,0,0,0-1,.39,1,1,0,0,0-.29.79,1.23,1.23,0,0,0,.45,1,1.64,1.64,0,0,0,1.11.38,2,2,0,0,0,1.48-.63Z" fill="#f2f2f4"/>
      <path id="Path_2462" data-name="Path 2462" d="M127.83,12.65v9.87H127v-1.3a2.24,2.24,0,0,1-.91,1,2.75,2.75,0,0,1-1.43.36,2.86,2.86,0,0,1-1.58-.44A2.92,2.92,0,0,1,122,20.93a4.34,4.34,0,0,1-.38-1.87,4.21,4.21,0,0,1,.38-1.84,2.81,2.81,0,0,1,2.65-1.66,2.75,2.75,0,0,1,1.43.36,2.24,2.24,0,0,1,.91,1V12.65Zm-1.44,8.49a3.19,3.19,0,0,0,.58-2.05A3.25,3.25,0,0,0,126.4,17a2.251,2.251,0,0,0-3.31-.01,3.15,3.15,0,0,0-.59,2,3.23,3.23,0,0,0,.59,2.06,2.23,2.23,0,0,0,3.3,0Z" fill="#f2f2f4"/>
      <path id="Path_2463" data-name="Path 2463" d="M134.78,15.73h2v.69h-2v6.1h-.85v-6.1h-1.34v-.69h1.34v-.34a2.8,2.8,0,0,1,.64-2,2.8,2.8,0,0,1,2-.75h.49l.07.7h-.64a1.71,1.71,0,0,0-1.26.54,2.16,2.16,0,0,0-.41,1.42Z" fill="#f2f2f4"/>
      <path id="Path_2464" data-name="Path 2464" d="M141.56,16.3l-.6.06a2.28,2.28,0,0,0-1.6.71,2.23,2.23,0,0,0-.5,1.47v4H138V15.73h.84v1.19a2.1,2.1,0,0,1,.88-.94,3.48,3.48,0,0,1,1.41-.39h.36Z" fill="#f2f2f4"/>
      <path id="Path_2465" data-name="Path 2465" d="M143.67,22.18a2.91,2.91,0,0,1-1.1-1.23,4.61,4.61,0,0,1,0-3.72,2.92,2.92,0,0,1,1.1-1.23A3.32,3.32,0,0,1,147,16a2.86,2.86,0,0,1,1.1,1.23,4.69,4.69,0,0,1,0,3.72,2.86,2.86,0,0,1-1.1,1.23,3.32,3.32,0,0,1-3.28,0Zm3.3-1a3.16,3.16,0,0,0,.59-2.06A3.18,3.18,0,0,0,147,17a2.22,2.22,0,0,0-3.3,0,3.21,3.21,0,0,0-.59,2.05,3.22,3.22,0,0,0,.57,2.06,2.33,2.33,0,0,0,3.32.03Z" fill="#f2f2f4"/>
      <path id="Path_2466" data-name="Path 2466" d="M159.83,18.19v4.33H159V18.25a2.38,2.38,0,0,0-.36-1.48,1.4,1.4,0,0,0-1.16-.46,1.83,1.83,0,0,0-1.45.62,2.44,2.44,0,0,0-.54,1.67v3.92h-.85V18.25a2.38,2.38,0,0,0-.36-1.48,1.4,1.4,0,0,0-1.16-.46,1.83,1.83,0,0,0-1.45.62,2.44,2.44,0,0,0-.54,1.67v3.92h-.85V15.73h.84v1.12a2.13,2.13,0,0,1,.85-1,2.46,2.46,0,0,1,1.28-.33,2,2,0,0,1,2.09,1.34,2.22,2.22,0,0,1,.9-1,2.67,2.67,0,0,1,1.39-.36Q159.83,15.56,159.83,18.19Z" fill="#f2f2f4"/>
      <path id="Path_2467" data-name="Path 2467" d="M81.7,37.18v8.28a11.89,11.89,0,0,1-2.88.94,17.12,17.12,0,0,1-3.41.34,9.79,9.79,0,0,1-4.66-1,7.2,7.2,0,0,1-3-3A9.64,9.64,0,0,1,66.67,38a9.62,9.62,0,0,1,1-4.6,7.23,7.23,0,0,1,3-3,9.35,9.35,0,0,1,4.54-1.06,11.07,11.07,0,0,1,3.4.5,7.4,7.4,0,0,1,2.6,1.39l-1.18,2.66a8.75,8.75,0,0,0-2.29-1.21,7.58,7.58,0,0,0-2.41-.37q-4.9,0-4.9,5.69a6.44,6.44,0,0,0,1.27,4.37,4.86,4.86,0,0,0,3.84,1.44,10.79,10.79,0,0,0,2.76-.36V39.77H75V37.18Z" fill="#f2f2f4"/>
      <path id="Path_2468" data-name="Path 2468" d="M87,46a5.3,5.3,0,0,1-2.18-2.14,7.27,7.27,0,0,1,0-6.5A5.23,5.23,0,0,1,87,35.19a7.64,7.64,0,0,1,6.58,0,5.23,5.23,0,0,1,2.18,2.12,7.27,7.27,0,0,1,0,6.5A5.3,5.3,0,0,1,93.53,46,7.53,7.53,0,0,1,87,46Zm5.93-5.39A4,4,0,0,0,92.2,38a2.38,2.38,0,0,0-2-.84q-2.64,0-2.64,3.38t2.64,3.38q2.68.03,2.68-3.36Z" fill="#f2f2f4"/>
      <path id="Path_2469" data-name="Path 2469" d="M101.06,46a5.3,5.3,0,0,1-2.18-2.14,7.27,7.27,0,0,1,0-6.5,5.23,5.23,0,0,1,2.18-2.12,7.64,7.64,0,0,1,6.58,0,5.23,5.23,0,0,1,2.18,2.12,7.27,7.27,0,0,1,0,6.5A5.3,5.3,0,0,1,107.64,46a7.53,7.53,0,0,1-6.58,0ZM107,40.56a4,4,0,0,0-.68-2.54,2.38,2.38,0,0,0-2-.84q-2.64,0-2.64,3.38t2.64,3.38Q107,43.95,107,40.56Z" fill="#f2f2f4"/>
      <path id="Path_2470" data-name="Path 2470" d="M124.82,34.73V45.24a5.51,5.51,0,0,1-1.63,4.32A7,7,0,0,1,118.37,51a11.83,11.83,0,0,1-3-.38,9.14,9.14,0,0,1-2.56-1.08l1-2.5a9.38,9.38,0,0,0,4.54,1.25q3,0,3-2.81v-1.3a3.56,3.56,0,0,1-1.51,1.44,4.78,4.78,0,0,1-2.26.53,5.15,5.15,0,0,1-2.72-.72A4.92,4.92,0,0,1,113,43.38a7.41,7.41,0,0,1,0-6.17,5,5,0,0,1,1.86-2.06,5.09,5.09,0,0,1,2.72-.73,4.76,4.76,0,0,1,2.22.52,3.66,3.66,0,0,1,1.52,1.43V34.73Zm-4.31,7.87a3.37,3.37,0,0,0,.71-2.28,3.42,3.42,0,0,0-.71-2.29,2.47,2.47,0,0,0-2-.83,2.5,2.5,0,0,0-2,.83,3.97,3.97,0,0,0,0,4.56,2.81,2.81,0,0,0,4,0Z" fill="#f2f2f4"/>
      <path id="Path_2471" data-name="Path 2471" d="M127.61,46.52V29.6h3.62V46.52Z" fill="#f2f2f4"/>
      <path id="Path_2472" data-name="Path 2472" d="M144.62,41.31h-7.68a3,3,0,0,0,.92,2.05A3.25,3.25,0,0,0,140,44a5.7,5.7,0,0,0,1.81-.3,5.84,5.84,0,0,0,1.64-.85l1,2.42a6.53,6.53,0,0,1-2.1,1.06,8.34,8.34,0,0,1-2.48.38,6.5,6.5,0,0,1-4.69-1.64,5.9,5.9,0,0,1-1.72-4.48,6.66,6.66,0,0,1,.74-3.19,5.45,5.45,0,0,1,2.06-2.17,5.79,5.79,0,0,1,3-.78,5,5,0,0,1,3.92,1.61,6.27,6.27,0,0,1,1.45,4.37ZM137.7,37.6a3.29,3.29,0,0,0-.76,1.91h4.63a3.14,3.14,0,0,0-.64-1.92,2,2,0,0,0-1.6-.65,2.13,2.13,0,0,0-1.63.66Z" fill="#f2f2f4"/>
      <path id="Path_2473" data-name="Path 2473" d="M153.79,29.6h7.78a6.17,6.17,0,0,1,4.3,1.39,5,5,0,0,1,1.54,3.89,5,5,0,0,1-1.54,3.89,6.17,6.17,0,0,1-4.3,1.39h-4v6.36h-3.74Zm7.3,7.73q2.81,0,2.81-2.42a2.31,2.31,0,0,0-.7-1.85,3.17,3.17,0,0,0-2.11-.6h-3.55v4.87Z" fill="#f2f2f4"/>
      <path id="Path_2474" data-name="Path 2474" d="M169.54,46.52V29.6h3.62V46.52Z" fill="#f2f2f4"/>
      <path id="Path_2475" data-name="Path 2475" d="M185.08,35.69a5.24,5.24,0,0,1,1.26,3.86v7H182.9V44.76a2.87,2.87,0,0,1-1.2,1.43,3.69,3.69,0,0,1-2,.52,4.85,4.85,0,0,1-2.17-.48A3.82,3.82,0,0,1,176,44.88a3.44,3.44,0,0,1-.56-1.92,3,3,0,0,1,.66-2,3.94,3.94,0,0,1,2.12-1.08,18.72,18.72,0,0,1,4-.34h.62v-.43a2,2,0,0,0-.46-1.49,2.29,2.29,0,0,0-1.58-.43,6.84,6.84,0,0,0-1.92.31,9.39,9.39,0,0,0-2,.86l-1-2.42a9.85,9.85,0,0,1,2.48-1,10.1,10.1,0,0,1,2.75-.42,5.35,5.35,0,0,1,3.97,1.17Zm-2.84,7.81a2.61,2.61,0,0,0,.65-1.84v-.41h-.41a8.2,8.2,0,0,0-2.72.31A1.13,1.13,0,0,0,179,42.7a1.44,1.44,0,0,0,.44,1.08,1.53,1.53,0,0,0,1.12.43,2.2,2.2,0,0,0,1.67-.71Z" fill="#f2f2f4"/>
      <path id="Path_2476" data-name="Path 2476" d="M197.21,34.76h3.55l-7.1,16.08H190l2.26-5-4.85-11.11h3.77l3,7.49Z" fill="#f2f2f4"/>
    </g>
  </g>
</svg>
