<svg id="Group_4951" data-name="Group 4951" xmlns="http://www.w3.org/2000/svg" width="76.907" height="100" viewBox="0 0 76.907 100">
  <g id="Group_4950" data-name="Group 4950">
    <path id="Path_9871" data-name="Path 9871" d="M65.4,94.223h67.145A4.754,4.754,0,0,1,137.3,98.96l.254,67.164a4.755,4.755,0,0,1-4.754,4.772H65.4a4.755,4.755,0,0,1-4.754-4.754v-32.59a4.755,4.755,0,0,1,8.407-3.044h0a4.752,4.752,0,0,1,1.1,3.044v23.08a4.755,4.755,0,0,0,4.754,4.756h48.381a4.755,4.755,0,0,0,4.754-4.772l-.178-48.147a4.754,4.754,0,0,0-4.754-4.737H65.4a4.754,4.754,0,0,1-4.754-4.754h0A4.755,4.755,0,0,1,65.4,94.223Z" transform="translate(-60.642 -70.897)" fill="#004e9f"/>
    <path id="Path_9872" data-name="Path 9872" d="M95.815,74.995A19.792,19.792,0,0,0,76.076,94.733h0a.8.8,0,0,0,.8.8h5.953a.8.8,0,0,0,.8-.8h0a12.192,12.192,0,0,1,24.384,0h0a.8.8,0,0,0,.8.8h5.954a.8.8,0,0,0,.8-.8h0A19.792,19.792,0,0,0,95.815,74.995Z" transform="translate(-57.352 -74.995)" fill="#004e9f"/>
  </g>
  <path id="Path_9873" data-name="Path 9873" d="M108.233,130.452H65.592a4.948,4.948,0,0,1-4.95-4.948h0a4.949,4.949,0,0,1,4.95-4.95h42.642a4.948,4.948,0,0,1,4.948,4.95h0A4.948,4.948,0,0,1,108.233,130.452Z" transform="translate(-60.642 -65.285)" fill="#004e9f"/>
  <path id="Path_9874" data-name="Path 9874" d="M108.952,128.079a5.152,5.152,0,0,1-1.508,3.642l-3.937,3.937-.065-.065L93.219,145.815a5.368,5.368,0,0,1-7.592,0h0a5.367,5.367,0,0,1,0-7.591l6.428-6.428a5.367,5.367,0,0,0,0-7.591l-6.363-6.363a5.367,5.367,0,0,1,0-7.591h0a5.368,5.368,0,0,1,7.592,0l10.158,10.158,4.013,4.04a5.146,5.146,0,0,1,1.5,3.63Z" transform="translate(-55.652 -67.816)" fill="#004e9f"/>
</svg>
