<svg xmlns="http://www.w3.org/2000/svg" width="247.687" height="100" viewBox="0 0 247.687 100">
  <g id="Group_4955" data-name="Group 4955" transform="translate(-60.642 -74.995)">
    <g id="Group_4951" data-name="Group 4951" transform="translate(60.642 74.995)">
      <g id="Group_4950" data-name="Group 4950">
        <path id="Path_9871" data-name="Path 9871" d="M65.4,94.223h67.145A4.754,4.754,0,0,1,137.3,98.96l.254,67.164a4.755,4.755,0,0,1-4.754,4.772H65.4a4.755,4.755,0,0,1-4.754-4.754v-32.59a4.755,4.755,0,0,1,8.407-3.044h0a4.752,4.752,0,0,1,1.1,3.044v23.08a4.755,4.755,0,0,0,4.754,4.756h48.381a4.755,4.755,0,0,0,4.754-4.772l-.178-48.147a4.754,4.754,0,0,0-4.754-4.737H65.4a4.754,4.754,0,0,1-4.754-4.754h0A4.755,4.755,0,0,1,65.4,94.223Z" transform="translate(-60.642 -70.897)" fill="#004e9f"/>
        <path id="Path_9872" data-name="Path 9872" d="M95.815,74.995A19.792,19.792,0,0,0,76.076,94.733h0a.8.8,0,0,0,.8.8h5.953a.8.8,0,0,0,.8-.8h0a12.192,12.192,0,0,1,24.384,0h0a.8.8,0,0,0,.8.8h5.954a.8.8,0,0,0,.8-.8h0A19.792,19.792,0,0,0,95.815,74.995Z" transform="translate(-57.352 -74.995)" fill="#004e9f"/>
      </g>
      <path id="Path_9873" data-name="Path 9873" d="M108.233,130.452H65.592a4.948,4.948,0,0,1-4.95-4.948h0a4.949,4.949,0,0,1,4.95-4.95h42.642a4.948,4.948,0,0,1,4.948,4.95h0A4.948,4.948,0,0,1,108.233,130.452Z" transform="translate(-60.642 -65.285)" fill="#004e9f"/>
      <path id="Path_9874" data-name="Path 9874" d="M108.952,128.079a5.152,5.152,0,0,1-1.508,3.642l-3.937,3.937-.065-.065L93.219,145.815a5.368,5.368,0,0,1-7.592,0h0a5.367,5.367,0,0,1,0-7.591l6.428-6.428a5.367,5.367,0,0,0,0-7.591l-6.363-6.363a5.367,5.367,0,0,1,0-7.591h0a5.368,5.368,0,0,1,7.592,0l10.158,10.158,4.013,4.04a5.146,5.146,0,0,1,1.5,3.63Z" transform="translate(-55.652 -67.816)" fill="#004e9f"/>
    </g>
    <g id="Group_4954" data-name="Group 4954" transform="translate(151.352 88.604)">
      <g id="Group_4952" data-name="Group 4952" transform="translate(14.475)">
        <path id="Path_9875" data-name="Path 9875" d="M147.347,109.415a16.708,16.708,0,0,1,1.527-5.94,15.972,15.972,0,0,1,8.362-8.046,15.334,15.334,0,0,1,6.027-1.183,16.937,16.937,0,0,1,6.6,1.269,16.11,16.11,0,0,1,5.22,3.461,15.785,15.785,0,0,1,3.431,5.19,16.9,16.9,0,0,1,1.24,6.517,16.339,16.339,0,0,1-1.787,7.612h7.265v2.595h-8.881a15.526,15.526,0,0,1-5.623,4.5A17.081,17.081,0,0,1,163.263,127a15.823,15.823,0,0,1-6.084-1.152,15.368,15.368,0,0,1-4.9-3.2,16.518,16.518,0,0,1-4.93-10.64Zm15.916,14.994a14.5,14.5,0,0,0,5.537-1.037,13.124,13.124,0,0,0,7.3-7.181,13.938,13.938,0,0,0,1.066-5.508,14.475,14.475,0,0,0-1.038-5.537,12.984,12.984,0,0,0-2.912-4.383A13.534,13.534,0,0,0,168.8,97.88a14.5,14.5,0,0,0-5.537-1.037,13.067,13.067,0,0,0-5.392,1.1,12.729,12.729,0,0,0-4.21,3,14.33,14.33,0,0,0-3.778,9.746,14.025,14.025,0,0,0,1.009,5.277,13.66,13.66,0,0,0,2.8,4.383,13.309,13.309,0,0,0,4.239,2.97A12.92,12.92,0,0,0,163.263,124.409Z" transform="translate(-147.347 -84.501)" fill="#5e6064"/>
        <path id="Path_9876" data-name="Path 9876" d="M176.677,120.009h8.536q-.289-1.21-.634-3.258a24.364,24.364,0,0,1-.346-4.066,20.326,20.326,0,0,1,.779-5.8,12.723,12.723,0,0,1,2.277-4.469,10.292,10.292,0,0,1,3.633-2.855,11.349,11.349,0,0,1,4.9-1.009,11.16,11.16,0,0,1,4.873,1.009,10.119,10.119,0,0,1,3.576,2.855,12.661,12.661,0,0,1,2.22,4.469,21.111,21.111,0,0,1,.75,5.8,29.192,29.192,0,0,1-.289,4.066q-.289,2.047-.577,3.258H215.2q.46-2.249.75-4.643a38.042,38.042,0,0,0,.289-4.527,41.988,41.988,0,0,0-.49-6.775,22.111,22.111,0,0,0-1.933-5.97,15.193,15.193,0,0,0-6.431-6.775,21.525,21.525,0,0,0-10.7-2.452,19.614,19.614,0,0,0-6.747,1.154,43.8,43.8,0,0,0-5.652,2.48l-1.1-2.364a40.843,40.843,0,0,1,7.065-2.884,27.379,27.379,0,0,1,7.814-1.038,20.564,20.564,0,0,1,5.912.837,21.693,21.693,0,0,1,5.075,2.22,18.952,18.952,0,0,1,4.008,3.229,17.14,17.14,0,0,1,2.768,3.864,22.954,22.954,0,0,1,2.335,6.6,38.115,38.115,0,0,1,.664,7.122,40.023,40.023,0,0,1-.318,5.076q-.317,2.48-.778,4.844h7.612V122.6H176.677Zm10.15-7.325a29.05,29.05,0,0,0,.289,4.182q.288,1.991.576,3.143h16.09q.289-1.152.577-3.114a29.045,29.045,0,0,0,.288-4.211,17.924,17.924,0,0,0-.547-4.526,10.882,10.882,0,0,0-1.673-3.662,8.245,8.245,0,0,0-2.768-2.451,7.906,7.906,0,0,0-3.835-.894,8.6,8.6,0,0,0-3.95.865,7.8,7.8,0,0,0-2.827,2.423,10.85,10.85,0,0,0-1.672,3.661A18.127,18.127,0,0,0,186.827,112.684Z" transform="translate(-141.096 -86.213)" fill="#5e6064"/>
        <path id="Path_9877" data-name="Path 9877" d="M215.848,118.3h13.034V94.247h2.595V118.3h10.9a7.806,7.806,0,0,0,5.594-2.076,7.951,7.951,0,0,0,2.192-6.056V94.247h2.595V109.3a9.775,9.775,0,0,0,.721,3.69,9.027,9.027,0,0,0,2.076,3.114,10.387,10.387,0,0,0,3.26,2.134,10.95,10.95,0,0,0,4.325.808q4.844,0,7.179-2.71a10.393,10.393,0,0,0,2.336-7.036V94.247h2.595v14.476q0,6.633-3.258,9.688t-8.852,3.057a14.422,14.422,0,0,1-6.892-1.616,10.265,10.265,0,0,1-4.527-4.729,9.252,9.252,0,0,1-3.6,4.211,10.475,10.475,0,0,1-5.738,1.556H215.848Z" transform="translate(-132.747 -84.501)" fill="#5e6064"/>
      </g>
      <g id="Group_4953" data-name="Group 4953" transform="translate(0 51.677)">
        <path id="Path_9878" data-name="Path 9878" d="M155.088,146.7a13.553,13.553,0,0,0-3.189-1.552,32.412,32.412,0,0,0-3.629-.894c-.6-.186-1.2-.352-1.788-.5a15.289,15.289,0,0,1-1.706-.423A14.748,14.748,0,0,1,141.8,142.2a4.837,4.837,0,0,1-1.983-1.759l-.019-.028a4.471,4.471,0,0,1-.773-2.7,5.619,5.619,0,0,1,.728-3.009,5.5,5.5,0,0,1,1.719-1.911,9.37,9.37,0,0,1,4.8-1.285,9.617,9.617,0,0,1,6.138,1.869,7.427,7.427,0,0,1,2.427,5.735l.018.49H157.6l-.028-.536c-.188-3.588-1.344-6.249-3.448-7.912a12.778,12.778,0,0,0-7.855-2.346,12.022,12.022,0,0,0-6.667,1.981c-2.151,1.387-3.269,3.715-3.323,6.926a7.536,7.536,0,0,0,.935,3.917,7.267,7.267,0,0,0,2.366,2.539,13.79,13.79,0,0,0,3.193,1.412c.56.175,1.155.345,1.742.5q.839.26,1.754.52l.041.011c1.239.241,2.448.508,3.584.79a13.117,13.117,0,0,1,2.936,1.179,6.09,6.09,0,0,1,2.031,1.88,5.711,5.711,0,0,1,.716,3.033,6.552,6.552,0,0,1-.687,3.153,6.161,6.161,0,0,1-1.9,2.038,8.1,8.1,0,0,1-2.469,1.138,10.231,10.231,0,0,1-2.668.371,11.316,11.316,0,0,1-7.007-2.1c-1.834-1.372-2.739-3.687-2.688-6.88l.007-.518h-2.75l.007.517c.053,4.145,1.293,7.176,3.686,9.009a14.065,14.065,0,0,0,8.748,2.673,12.539,12.539,0,0,0,6.891-2.106c2.287-1.429,3.488-3.88,3.569-7.3a9.144,9.144,0,0,0-.856-4.174A7.456,7.456,0,0,0,155.088,146.7Z" transform="translate(-135.415 -128.811)" fill="#5e6064"/>
        <path id="Path_9879" data-name="Path 9879" d="M169.956,129.434,158.2,162.01h2.962l3.6-10.126H177.6l3.582,10.126h2.939L172.57,129.434Zm6.751,19.752H165.689l5.6-15.9Z" transform="translate(-130.558 -128.678)" fill="#5e6064"/>
        <path id="Path_9880" data-name="Path 9880" d="M204.063,143.746h-17.1V129.434h-2.735V162.01h2.735V146.445h17.1V162.01H206.8V129.434h-2.735Z" transform="translate(-125.012 -128.678)" fill="#5e6064"/>
        <path id="Path_9881" data-name="Path 9881" d="M224.311,157.994l-10.734-28.56h-3.359V162.01h2.735V134.924l10.133,27.086h2.454L235.574,134.9V162.01h2.737V129.434h-3.36Z" transform="translate(-119.472 -128.678)" fill="#5e6064"/>
        <path id="Path_9882" data-name="Path 9882" d="M265.642,129.434,255,157.994l-10.734-28.56h-3.359V162.01h2.735V134.924l10.133,27.086h2.453L266.266,134.9V162.01H269V129.434Z" transform="translate(-112.93 -128.678)" fill="#5e6064"/>
      </g>
      <rect id="Rectangle_4833" data-name="Rectangle 4833" width="18.514" height="2.595" transform="translate(0.336 33.796)" fill="#5e6064"/>
    </g>
  </g>
</svg>
