<svg xmlns="http://www.w3.org/2000/svg" xmlns:xlink="http://www.w3.org/1999/xlink" width="80" height="80" viewBox="0 0 80 80">
  <defs>
    <clipPath id="clip-path">
      <rect id="Rectangle_4540" data-name="Rectangle 4540" width="80" height="80" transform="translate(145 152)" fill="#fff" stroke="#707070" stroke-width="1"/>
    </clipPath>
  </defs>
  <g id="Mask_Group_257" data-name="Mask Group 257" transform="translate(-145 -152)" clip-path="url(#clip-path)">
    <g id="delivery-truck" transform="translate(145 162.313)">
      <path id="Path_2499" data-name="Path 2499" d="M99.688,70.313a3.125,3.125,0,1,0,3.125,3.125A3.124,3.124,0,0,0,99.688,70.313Zm0,0" transform="translate(-32.188 -23.438)" fill="#004e9f"/>
      <path id="Path_2500" data-name="Path 2500" d="M98.125,51.563a1.563,1.563,0,1,0,1.563,1.563A1.563,1.563,0,0,0,98.125,51.563Zm0,0" transform="translate(-32.188 -17.188)" fill="#004e9f"/>
      <path id="Path_2501" data-name="Path 2501" d="M27.969,70.313a3.125,3.125,0,1,0,3.125,3.125A3.124,3.124,0,0,0,27.969,70.313Zm0,0" transform="translate(-8.281 -23.438)" fill="#004e9f"/>
      <path id="Path_2502" data-name="Path 2502" d="M73.433,28.225,70.739,17.449A4.686,4.686,0,0,0,67.5,9.375H55V4.688A4.693,4.693,0,0,0,50.313,0H4.688A4.693,4.693,0,0,0,0,4.688V45.313A4.693,4.693,0,0,0,4.688,50h5.625a9.375,9.375,0,0,0,18.75,0H58.125a9.375,9.375,0,0,0,18.75,0c0-.089,0-.178-.007-.267A4.7,4.7,0,0,0,80,45.313V35.938a7.824,7.824,0,0,0-6.567-7.712Zm-5.59-9.475,2.344,9.375H57.21l3.583-3.583a1.562,1.562,0,1,0-2.209-2.209L55,25.915V18.75Zm1.22-4.687A1.563,1.563,0,0,1,67.5,15.625H55V12.5H67.5A1.564,1.564,0,0,1,69.063,14.063ZM19.688,56.25A6.25,6.25,0,1,1,25.938,50,6.257,6.257,0,0,1,19.688,56.25Zm8.839-9.375a9.375,9.375,0,0,0-17.678,0H4.688a1.564,1.564,0,0,1-1.563-1.562V4.688A1.564,1.564,0,0,1,4.688,3.125H50.313a1.564,1.564,0,0,1,1.563,1.562V46.875ZM67.5,56.25A6.25,6.25,0,1,1,73.75,50,6.257,6.257,0,0,1,67.5,56.25Zm8.727-9.673a9.375,9.375,0,0,0-17.567.3H55V31.25H72.188a4.7,4.7,0,0,1,4.419,3.125H72.188a1.562,1.562,0,0,0,0,3.125h4.688v7.813a1.562,1.562,0,0,1-.648,1.264Zm0,0" transform="translate(0 0)"/>
      <path id="Path_2503" data-name="Path 2503" d="M34.219,14.063A14.063,14.063,0,1,0,48.281,28.125,14.079,14.079,0,0,0,34.219,14.063Zm0,25A10.938,10.938,0,1,1,45.156,28.125,10.95,10.95,0,0,1,34.219,39.063Zm0,0" transform="translate(-6.719 -4.688)" fill="#004e9f"/>
      <path id="Path_2504" data-name="Path 2504" d="M46.719,29.688H42.031V25a1.563,1.563,0,0,0-3.125,0v6.25a1.562,1.562,0,0,0,1.563,1.563h6.25a1.563,1.563,0,0,0,0-3.125Zm0,0" transform="translate(-12.969 -7.813)" fill="#004e9f"/>
    </g>
  </g>
</svg>
