<svg xmlns="http://www.w3.org/2000/svg" xmlns:xlink="http://www.w3.org/1999/xlink" width="18" height="18" viewBox="0 0 18 18">
  <defs>
    <clipPath id="clip-path">
      <rect id="Rectangle_1478" data-name="Rectangle 1478" width="18" height="18" fill="#fff" stroke="#707070" stroke-width="1"/>
    </clipPath>
  </defs>
  <g id="Mask_Group_29" data-name="Mask Group 29" clip-path="url(#clip-path)">
    <g id="phone-call_3_" data-name="phone-call (3)" transform="translate(0.013 0)">
      <g id="Group_3281" data-name="Group 3281" transform="translate(0 0)">
        <path id="Path_721" data-name="Path 721" d="M14.236,11.96a1.77,1.77,0,0,0-1.284-.589,1.831,1.831,0,0,0-1.3.585l-1.2,1.2c-.1-.053-.2-.1-.293-.152-.137-.068-.266-.133-.376-.2A13.048,13.048,0,0,1,6.657,9.95,7.7,7.7,0,0,1,5.631,8.332c.312-.285.6-.581.881-.866.106-.106.213-.217.319-.323a1.743,1.743,0,0,0,0-2.629L5.794,3.477c-.118-.118-.239-.239-.353-.361-.228-.236-.467-.479-.714-.707a1.8,1.8,0,0,0-1.273-.558,1.861,1.861,0,0,0-1.292.558l-.008.008L.863,3.72A2.779,2.779,0,0,0,.039,5.487,6.66,6.66,0,0,0,.525,8.305a16.357,16.357,0,0,0,2.906,4.848,17.878,17.878,0,0,0,5.953,4.661,9.275,9.275,0,0,0,3.343.988c.08,0,.163.008.239.008a2.863,2.863,0,0,0,2.192-.942c0-.008.011-.011.015-.019a8.636,8.636,0,0,1,.665-.688c.163-.156.331-.319.494-.49a1.9,1.9,0,0,0,.574-1.314,1.826,1.826,0,0,0-.585-1.3Zm1.36,4s0,0,0,0c-.148.16-.3.3-.463.463a9.989,9.989,0,0,0-.733.76,1.831,1.831,0,0,1-1.428.6c-.057,0-.118,0-.175,0A8.24,8.24,0,0,1,9.833,16.9,16.876,16.876,0,0,1,4.225,12.5,15.423,15.423,0,0,1,1.49,7.948,5.424,5.424,0,0,1,1.065,5.57a1.744,1.744,0,0,1,.524-1.128l1.3-1.3a.864.864,0,0,1,.577-.27.813.813,0,0,1,.555.266l.011.011c.232.217.452.441.684.68.118.122.239.243.361.369L6.11,5.24a.725.725,0,0,1,0,1.178c-.11.11-.217.22-.327.327-.319.327-.623.631-.954.927-.008.008-.015.011-.019.019a.775.775,0,0,0-.2.862l.011.034a8.327,8.327,0,0,0,1.227,2l0,0a13.944,13.944,0,0,0,3.374,3.07,5.187,5.187,0,0,0,.467.255c.137.068.266.133.376.2.015.008.03.019.046.027a.824.824,0,0,0,.376.095.812.812,0,0,0,.577-.262l1.3-1.3a.859.859,0,0,1,.574-.285.774.774,0,0,1,.547.277l.008.008,2.093,2.093A.751.751,0,0,1,15.6,15.961Z" transform="translate(-0.023 -0.81)" fill="#fff"/>
        <path id="Path_722" data-name="Path 722" d="M16.965,6.821A4.889,4.889,0,0,1,20.947,10.8a.51.51,0,0,0,.505.425.678.678,0,0,0,.087-.008.513.513,0,0,0,.422-.593A5.912,5.912,0,0,0,17.144,5.81a.516.516,0,0,0-.593.418A.507.507,0,0,0,16.965,6.821Z" transform="translate(-7.251 -2.539)" fill="#fff"/>
        <path id="Path_723" data-name="Path 723" d="M25.33,7.94A9.735,9.735,0,0,0,17.4.008a.512.512,0,1,0-.167,1.011,8.7,8.7,0,0,1,7.089,7.089.51.51,0,0,0,.505.425.678.678,0,0,0,.087-.008A.5.5,0,0,0,25.33,7.94Z" transform="translate(-7.364 0)" fill="#fff"/>
      </g>
    </g>
  </g>
</svg>
