<svg xmlns="http://www.w3.org/2000/svg" xmlns:xlink="http://www.w3.org/1999/xlink" width="80" height="80" viewBox="0 0 80 80">
  <defs>
    <clipPath id="clip-path">
      <rect id="Rectangle_4540" data-name="Rectangle 4540" width="80" height="80" transform="translate(145 152)" fill="#fff" stroke="#707070" stroke-width="1"/>
    </clipPath>
  </defs>
  <g id="Mask_Group_256" data-name="Mask Group 256" transform="translate(-145 -152)" clip-path="url(#clip-path)">
    <g id="currency" transform="translate(152.969 152)">
      <path id="Path_2496" data-name="Path 2496" d="M29.687,48.281a1.563,1.563,0,0,0-1.562,1.541v.022a1.562,1.562,0,1,0,3.125,0v-.022A1.563,1.563,0,0,0,29.687,48.281Zm0,0" transform="translate(-9.375 -16.094)" fill="#004e9f"/>
      <path id="Path_2497" data-name="Path 2497" d="M20.312,0C10.218,0,0,2.684,0,7.812v48.75c0,5.129,10.218,7.812,20.312,7.812.3,0,.607,0,.906-.007A21.877,21.877,0,1,0,42.187,36.25c-.524,0-1.05.021-1.576.058,0-1.026.008-16.511.009-18.524,0-.043,0-.085,0-.128s0-.06,0-.09l0-9.753h0C40.625,2.684,30.406,0,20.312,0Zm1.06,51.4c-.359.007-.713.01-1.06.01a42.046,42.046,0,0,1-12.764-1.75c-3.5-1.166-4.424-2.431-4.424-2.937V41.241c3.795,2.275,10.518,3.447,17.187,3.447,1.618,0,3.227-.068,4.784-.2A22.021,22.021,0,0,0,21.373,51.4Zm7.375-10.527a49.64,49.64,0,0,1-8.435.693,42.046,42.046,0,0,1-12.764-1.75c-3.5-1.166-4.424-2.431-4.424-2.937v-5a16.365,16.365,0,0,0,2.763,1.287,38.44,38.44,0,0,0,8.185,1.792,1.562,1.562,0,0,0,.178-3.115c-.5-.082-6.009-.634-9.368-2.554a3.441,3.441,0,0,1-1.741-1.652c-.041-.221,0,.217-.017-5.615C6.92,24.3,13.643,25.469,20.312,25.469A45.48,45.48,0,0,0,33.939,23.6a17.787,17.787,0,0,0,3.57-1.559c0,5.734,0,5.548,0,5.563a1.771,1.771,0,0,1-.524.787c-.016.006-2.446,2.523-10.588,3.45l-.019,0a1.562,1.562,0,0,0,.177,3.115A30.881,30.881,0,0,0,37.5,31.887l0,4.871a21.893,21.893,0,0,0-8.754,4.111ZM37.5,27.612s0,0,0,0S37.5,27.612,37.5,27.612Zm.006-9.9c-.054.527-1.073,1.783-4.545,2.92a42.324,42.324,0,0,1-12.654,1.714,42.046,42.046,0,0,1-12.764-1.75c-3.5-1.166-4.424-2.431-4.424-2.937V12.178c3.795,2.275,10.518,3.447,17.187,3.447s13.406-1.172,17.2-3.445ZM7.549,4.876a42.046,42.046,0,0,1,12.764-1.75,42.046,42.046,0,0,1,12.764,1.75c3.5,1.166,4.424,2.431,4.424,2.937s-.925,1.771-4.424,2.937A42.046,42.046,0,0,1,20.312,12.5,42.046,42.046,0,0,1,7.549,10.75C4.05,9.583,3.125,8.319,3.125,7.813S4.05,6.042,7.549,4.876Zm0,54.624c-3.5-1.166-4.424-2.431-4.424-2.937V51.085c3.795,2.275,10.518,3.447,17.187,3.447h.3a22.045,22.045,0,0,0-.073,6.719h-.222A42.047,42.047,0,0,1,7.549,59.5Zm53.389-1.375a18.753,18.753,0,0,1-37.007,4.292.086.086,0,0,1,0-.012l0-.007a18.752,18.752,0,1,1,37.011-4.273Zm0,0" transform="translate(0 0)"/>
      <path id="Path_2498" data-name="Path 2498" d="M56.2,78.594a4.693,4.693,0,0,0,4.687,4.688,1.562,1.562,0,1,1,0,3.125,2.827,2.827,0,0,1-2.029-1.182,1.562,1.562,0,1,0-2.392,2.01,6.472,6.472,0,0,0,2.858,2.035v1.824a1.562,1.562,0,1,0,3.125,0V89.263a4.687,4.687,0,0,0-1.562-9.106,1.563,1.563,0,0,1,0-3.125,2.511,2.511,0,0,1,1.69.817A1.562,1.562,0,1,0,64.75,75.6a6.03,6.03,0,0,0-2.3-1.439v-1.82a1.562,1.562,0,0,0-3.125,0v1.831A4.7,4.7,0,0,0,56.2,78.594Zm0,0" transform="translate(-18.7 -23.594)" fill="#004e9f"/>
    </g>
  </g>
</svg>
