<svg xmlns="http://www.w3.org/2000/svg" xmlns:xlink="http://www.w3.org/1999/xlink" width="18" height="18" viewBox="0 0 18 18">
  <defs>
    <clipPath id="clip-path">
      <rect id="Rectangle_1477" data-name="Rectangle 1477" width="18" height="18" fill="#fff" stroke="#707070" stroke-width="1"/>
    </clipPath>
  </defs>
  <g id="Mask_Group_28" data-name="Mask Group 28" clip-path="url(#clip-path)">
    <g id="placeholder_6_" data-name="placeholder (6)" transform="translate(1.781)">
      <g id="Group_3280" data-name="Group 3280" transform="translate(0)">
        <path id="Path_719" data-name="Path 719" d="M10.382,0A7.225,7.225,0,0,0,3.166,7.215,7.1,7.1,0,0,0,3.295,8.57c0,.026.019.106.049.242a7.106,7.106,0,0,0,.483,1.423,20.226,20.226,0,0,0,6.238,7.653.511.511,0,0,0,.642,0,20.264,20.264,0,0,0,6.238-7.653,7.026,7.026,0,0,0,.483-1.423c.03-.136.045-.215.049-.242A7.42,7.42,0,0,0,17.6,7.215,7.236,7.236,0,0,0,10.382,0Zm6.083,8.392c0,.008,0,.015,0,.023s-.015.075-.034.162v.008a5.991,5.991,0,0,1-.419,1.23s0,.011-.008.015a18.876,18.876,0,0,1-5.619,7,18.876,18.876,0,0,1-5.619-7s0-.011-.008-.015a6.39,6.39,0,0,1-.419-1.23V8.577c-.023-.087-.03-.143-.034-.162s0-.015,0-.026a6.2,6.2,0,1,1,12.166,0Z" transform="translate(-3.166 0)" fill="#fff"/>
        <path id="Path_720" data-name="Path 720" d="M12.43,4.823A4.581,4.581,0,1,0,17.011,9.4,4.588,4.588,0,0,0,12.43,4.823Zm0,8.143A3.562,3.562,0,1,1,15.992,9.4,3.566,3.566,0,0,1,12.43,12.967Z" transform="translate(-5.215 -2.11)" fill="#fff"/>
      </g>
    </g>
  </g>
</svg>
