<svg xmlns="http://www.w3.org/2000/svg" xmlns:xlink="http://www.w3.org/1999/xlink" width="80" height="80" viewBox="0 0 80 80">
  <defs>
    <clipPath id="clip-path">
      <rect id="Rectangle_4540" data-name="Rectangle 4540" width="80" height="80" transform="translate(145 152)" fill="#fff" stroke="#707070" stroke-width="1"/>
    </clipPath>
  </defs>
  <g id="Mask_Group_255" data-name="Mask Group 255" transform="translate(-145 -152)" clip-path="url(#clip-path)">
    <g id="diamond" transform="translate(145 152.004)">
      <g id="Group_4183" data-name="Group 4183" transform="translate(0 13.438)">
        <g id="Group_4182" data-name="Group 4182">
          <path id="Path_2492" data-name="Path 2492" d="M79.744,40.4,66.933,20.869a1.563,1.563,0,0,0-1.306-.706H14.434a1.562,1.562,0,0,0-1.3.7L.3,40.343A1.563,1.563,0,0,0,.387,42.29l6.5,7.426a1.562,1.562,0,1,0,2.35-2.058L5.008,42.823H26.023l10.56,36.054L24.65,65.252A1.562,1.562,0,1,0,22.3,67.31L38.83,86.184a1.562,1.562,0,0,0,2.35,0l17.6-20.1a1.562,1.562,0,1,0-2.351-2.058l-13,14.849,10.56-36.052H74.993l-9.716,11.1a1.562,1.562,0,1,0,2.351,2.058L79.613,42.29A1.562,1.562,0,0,0,79.744,40.4ZM4.465,39.7,14.431,24.57,24.352,39.7Zm12.862-16.41H37.112L27.219,38.373ZM40,24.575,49.923,39.7H30.087ZM40,79.44,29.279,42.823H50.73ZM52.816,38.412,42.9,23.288H62.734ZM55.709,39.7l9.918-15.124L75.545,39.7Z" transform="translate(0 -20.163)"/>
        </g>
      </g>
      <g id="Group_4185" data-name="Group 4185" transform="translate(5.256 42.221)">
        <g id="Group_4184" data-name="Group 4184">
          <path id="Path_2493" data-name="Path 2493" d="M27.189,72.209A7.317,7.317,0,0,1,19.88,64.9a1.562,1.562,0,1,0-3.125,0,7.317,7.317,0,0,1-7.309,7.309,1.562,1.562,0,1,0,0,3.125,7.317,7.317,0,0,1,7.309,7.309,1.562,1.562,0,0,0,3.125,0,7.317,7.317,0,0,1,7.309-7.309,1.562,1.562,0,0,0,0-3.125Zm-8.871,4.947a10.516,10.516,0,0,0-3.384-3.385,10.514,10.514,0,0,0,3.384-3.385A10.516,10.516,0,0,0,21.7,73.771,10.516,10.516,0,0,0,18.317,77.156Z" transform="translate(-7.883 -63.338)" fill="#004e9f"/>
        </g>
      </g>
      <g id="Group_4187" data-name="Group 4187" transform="translate(64.377 0)">
        <g id="Group_4186" data-name="Group 4186">
          <path id="Path_2494" data-name="Path 2494" d="M110.626,6.256a4.692,4.692,0,0,1-4.687-4.687,1.562,1.562,0,1,0-3.125,0,4.692,4.692,0,0,1-4.687,4.687,1.562,1.562,0,1,0,0,3.125,4.692,4.692,0,0,1,4.687,4.687,1.562,1.562,0,1,0,3.125,0,4.692,4.692,0,0,1,4.687-4.687,1.562,1.562,0,1,0,0-3.125Zm-6.249,3.13a7.881,7.881,0,0,0-1.567-1.567,7.881,7.881,0,0,0,1.567-1.567,7.88,7.88,0,0,0,1.567,1.567A7.872,7.872,0,0,0,104.377,9.385Z" transform="translate(-96.565 -0.006)" fill="#004e9f"/>
        </g>
      </g>
      <g id="Group_4189" data-name="Group 4189" transform="translate(60.268 51.94)">
        <g id="Group_4188" data-name="Group 4188">
          <path id="Path_2495" data-name="Path 2495" d="M93.069,78.374a1.561,1.561,0,1,0,.458,1.1A1.567,1.567,0,0,0,93.069,78.374Z" transform="translate(-90.402 -77.916)" fill="#004e9f"/>
        </g>
      </g>
    </g>
  </g>
</svg>
